<?xml version="1.0" encoding="utf-8"?><svg xmlns="http://www.w3.org/2000/svg" xmlns:xlink="http://www.w3.org/1999/xlink" width="1366" height="581" preserveAspectRatio="xMidYMid" viewBox="0 0 1366 581" style="z-index:1;margin-right:-2px;display:block;background-repeat-y:initial;background-repeat-x:initial;background-color:rgb(1, 44, 50);animation-play-state:paused" ><g transform="translate(683,290.5) scale(1,1) translate(-683,-290.5)" style="transform:matrix(1, 0, 0, 1, 0, 0);animation-play-state:paused" ><path d="M -100 344.43 C -73.76 348.26 -73.99 345.14 -49.48 345.14 S -23.76 348.83 1.03 348.83 S 26.57 344.86 51.55 344.86 S 77.62 340.24 102.06 340.24 S 128.09 349.79 152.58 349.79 S 178.49 348.35 203.1 348.35 S 229.26 339.37 253.61 339.37 S 279.61 347.4 304.13 347.4 S 329.72 338.76 354.65 338.76 S 380.95 346.55 405.16 346.55 S 430.65 349.27 455.68 349.27 S 481.37 344.58 506.19 344.58 S 531.81 343.55 556.71 343.55 S 583.33 347.78 607.23 347.78 S 632.91 338.68 657.74 338.68 S 683.31 348.33 708.26 348.33 S 733.55 338.98 758.77 338.98 S 784.55 338.45 809.29 338.45 S 835.72 340.4 859.81 340.4 S 885.2 339.94 910.32 339.94 S 936.66 348.43 960.84 348.43 S 986.39 346.37 1011.35 346.37 S 1036.85 350.13 1061.87 350.13 S 1087.5 350.36 1112.39 350.36 S 1138.91 343.02 1162.9 343.02 S 1188.68 347.66 1213.42 347.66 S 1239.2 339.01 1263.94 339.01 S 1289.42 338.16 1314.45 338.16 S 1340.13 346.96 1364.97 346.96 S 1390.6 349.95 1415.48 349.95 S 1441.1 343.64 1466 343.64 S 1492.04 343.6 1516.52 343.6 L 1466 581 L -100 581 Z" fill="#0f3135" stroke-width="0" transform="matrix(1,0,0,1,0,0)" style="transform:matrix(1, 0, 0, 1, 0, 0);animation-play-state:paused" ></path>
<path d="M -100 359.79 C -73.99 360.43 -73.58 360.05 -48.15 360.05 S -21.33 368.18 3.71 368.18 S 31.05 367.63 55.56 367.63 S 82.6 365.93 107.42 365.93 S 133.94 367.06 159.27 367.06 S 185.27 363.81 211.13 363.81 S 237.09 362.09 262.98 362.09 S 289.48 357.97 314.83 357.97 S 341.9 359.76 366.69 359.76 S 393.52 362.48 418.54 362.48 S 445.46 362.85 470.4 362.85 S 497.17 364.95 522.25 364.95 S 548.9 364.33 574.11 364.33 S 600.75 352.87 625.96 352.87 S 652.71 368.66 677.81 368.66 S 704.62 359.72 729.67 359.72 S 755.81 367.96 781.52 367.96 S 807.61 359.51 833.38 359.51 S 859.98 358.96 885.23 358.96 S 912.37 355.02 937.09 355.02 S 963.51 356.22 988.94 356.22 S 1015.01 367.36 1040.79 367.36 S 1066.76 367.6 1092.65 367.6 S 1118.89 363.83 1144.5 363.83 S 1171.71 364.7 1196.36 364.7 S 1223.01 365.04 1248.21 365.04 S 1274.65 364.38 1300.07 364.38 S 1326.42 359.24 1351.92 359.24 S 1379.06 366.88 1403.77 366.88 S 1429.92 353.5 1455.63 353.5 S 1482.29 362.43 1507.48 362.43 L 1466 581 L -100 581 Z" fill="#254346" stroke-width="0" transform="matrix(1,0,0,1,1.1340199708938599,0)" style="transform:matrix(1, 0, 0, 1, 1.13402, 0);animation-play-state:paused" ></path>
<path d="M -100 369.13 C -72.59 366.07 -72.85 381.91 -46.73 381.91 S -19.76 379.06 6.53 379.06 S 33.18 377.13 59.8 377.13 S 86.73 373.83 113.06 373.83 S 140.22 378.88 166.33 378.88 S 194.06 373.91 219.59 373.91 S 246.55 375.49 272.86 375.49 S 299.62 370 326.12 370 S 353.38 384.74 379.39 384.74 S 406.95 374.55 432.65 374.55 S 459.79 380.09 485.92 380.09 S 513.01 368.89 539.18 368.89 S 567.18 385.42 592.45 385.42 S 619.16 368.15 645.71 368.15 S 672.57 378.35 698.98 378.35 S 726.51 384.29 752.24 384.29 S 779.22 379.4 805.51 379.4 S 833.52 371.11 858.78 371.11 S 885.87 377.53 912.04 377.53 S 939.31 372.42 965.31 372.42 S 993.25 381.7 1018.57 381.7 S 1045.76 376.99 1071.84 376.99 S 1098.54 382.57 1125.1 382.57 S 1151.87 372.81 1178.37 372.81 S 1206.26 381.19 1231.63 381.19 S 1259.2 374.06 1284.9 374.06 S 1312.74 381.12 1338.16 381.12 S 1365.35 369.75 1391.43 369.75 S 1418.17 375.55 1444.69 375.55 S 1472.23 366.41 1497.96 366.41 L 1466 581 L -100 581 Z" fill="#3b5658" stroke-width="0" transform="matrix(1,0,0,1,3.5863146781921387,0)" style="transform:matrix(1, 0, 0, 1, 3.58631, 0);animation-play-state:paused" ></path>
<path d="M -100 381.07 C -71.45 384.71 -72.54 397.14 -45.24 397.14 S -17.84 390.34 9.51 390.34 S 37.05 400.48 64.27 400.48 S 92.65 395.5 119.02 395.5 S 147.12 399.58 173.78 399.58 S 201.82 394.89 228.53 394.89 S 256.71 391.68 283.29 391.68 S 311.39 386.51 338.04 386.51 S 366.87 384.9 392.8 384.9 S 421.08 383.87 447.55 383.87 S 475.48 398.94 502.31 398.94 S 530.21 387.95 557.06 387.95 S 584.58 393.54 611.82 393.54 S 640.64 391.89 666.57 391.89 S 695.06 393.73 721.33 393.73 S 749.39 396.41 776.08 396.41 S 803.68 390.81 830.84 390.81 S 858.83 400.25 885.59 400.25 S 913.22 392.37 940.35 392.37 S 968.58 387.35 995.1 387.35 S 1023.28 402.29 1049.86 402.29 S 1078.49 380.93 1104.62 380.93 S 1133.15 394.46 1159.37 394.46 S 1187.11 391.29 1214.13 391.29 S 1241.94 394.99 1268.88 394.99 S 1296.37 394.02 1323.64 394.02 S 1352.24 391.37 1378.39 391.37 S 1407.03 393.53 1433.15 393.53 S 1461.19 397.58 1487.9 397.58 L 1466 581 L -100 581 Z" fill="#51696b" stroke-width="0" transform="matrix(1,0,0,1,6.4136857986450195,0)" style="transform:matrix(1, 0, 0, 1, 6.41369, 0);animation-play-state:paused" ></path>
<path d="M -100 406.95 C -71.34 407.27 -70.63 410.91 -43.67 410.91 S -14.38 400.58 12.66 400.58 S 41.65 417.04 68.99 417.04 S 97.42 408.94 125.32 408.94 S 154.66 415.29 181.65 415.29 S 210.09 396.72 237.99 396.72 S 266.56 421.16 294.32 421.16 S 322.96 406.74 350.65 406.74 S 379.12 409.96 406.98 409.96 S 436.23 400.77 463.31 400.77 S 492.59 406.04 519.64 406.04 S 548.78 406.38 575.97 406.38 S 605.37 413.51 632.3 413.51 S 660.76 411.69 688.63 411.69 S 716.81 414.14 744.96 414.14 S 773.62 401.52 801.29 401.52 S 830.56 396.71 857.63 396.71 S 886.59 402.76 913.96 402.76 S 942.69 415.77 970.29 415.77 S 999.59 400.06 1026.62 400.06 S 1056.15 411.13 1082.95 411.13 S 1111.27 404.05 1139.28 404.05 S 1167.78 410.33 1195.61 410.33 S 1224.52 405.73 1251.94 405.73 S 1281.5 409.4 1308.27 409.4 S 1337.13 398.45 1364.6 398.45 S 1393.76 407.49 1420.94 407.49 S 1449.5 408.3 1477.27 408.3 L 1466 581 L -100 581 Z" fill="#677d7f" stroke-width="0" transform="matrix(1,0,0,1,8.86598014831543,0)" style="transform:matrix(1, 0, 0, 1, 8.86598, 0);animation-play-state:paused" ></path>
<path d="M -100 432.86 C -70.29 436.73 -69.87 438.64 -42 438.64 S -11.59 417.52 16 417.52 S 46.15 427.76 74 427.76 S 104.01 433.76 132 433.76 S 162.28 435.12 190 435.12 S 219.87 416.78 248 416.78 S 277.67 426.35 306 426.35 S 335.74 419.77 364 419.77 S 394.05 424.62 422 424.62 S 451.73 422.84 480 422.84 S 510.22 427.6 538 427.6 S 567.32 418.51 596 418.51 S 625.95 434.24 654 434.24 S 683.85 409.74 712 409.74 S 741.01 428.39 770 428.39 S 799.43 422.06 828 422.06 S 858.1 428.63 886 428.63 S 916.22 422.29 944 422.29 S 974.13 426.34 1002 426.34 S 1031.95 422.81 1060 422.81 S 1089.7 429.27 1118 429.27 S 1147.84 421.9 1176 421.9 S 1206.15 431.98 1234 431.98 S 1263.92 412.66 1292 412.66 S 1321.17 435.2 1350 435.2 S 1379.97 412.58 1408 412.58 S 1437.29 437.93 1466 437.93 S 1495.11 413.15 1524 413.15 L 1466 581 L -100 581 Z" fill="#7e9193" stroke-width="0" transform="matrix(1,0,0,1,10,0)" style="transform:matrix(1, 0, 0, 1, 10, 0);animation-play-state:paused" ></path>
<path d="M -100 435.21 C -69.4 428.88 -69.44 450.42 -40.23 450.42 S -8.9 433.75 19.54 433.75 S 49.91 443.87 79.31 443.87 S 110.43 433.66 139.08 433.66 S 169.01 453.23 198.85 453.23 S 229.59 431.94 258.63 431.94 S 288.96 455.35 318.4 455.35 S 349.2 428.63 378.17 428.63 S 408.79 453.21 437.94 453.21 S 467.96 435.03 497.71 435.03 S 528.75 452.82 557.48 452.82 S 587.91 432.93 617.25 432.93 S 647.33 451.97 677.02 451.97 S 708.01 430.66 736.79 430.66 S 767.25 451.39 796.56 451.39 S 827.14 437.65 856.34 437.65 S 887.46 450.07 916.11 450.07 S 946.85 424.35 975.88 424.35 S 1006.16 449.2 1035.65 449.2 S 1066.41 428.71 1095.42 428.71 S 1125.69 435.99 1155.19 435.99 S 1185.65 435.39 1214.96 435.39 S 1245.64 455.92 1274.73 455.92 S 1305.94 434.91 1334.5 434.91 S 1365 451.56 1394.27 451.56 S 1425.1 425.97 1454.05 425.97 S 1484.83 441.65 1513.82 441.65 L 1466 581 L -100 581 Z" fill="#95a6a7" stroke-width="0" transform="matrix(1,0,0,1,8.86598014831543,0)" style="transform:matrix(1, 0, 0, 1, 8.86598, 0);animation-play-state:paused" ></path>
<path d="M -100 442.59 C -68.83 442.31 -68.79 465.34 -38.35 465.34 S -6.65 441.56 23.31 441.56 S 54.86 459.22 84.96 459.22 S 117.06 448.54 146.61 448.54 S 178.48 469.69 208.27 469.69 S 239.96 443.27 269.92 443.27 S 302.06 471.27 331.57 471.27 S 363.29 471.54 393.23 471.54 S 424.55 469.83 454.88 469.83 S 486.99 446.41 516.54 446.41 S 547.5 471.04 578.19 471.04 S 609.55 445.84 639.84 445.84 S 671.62 470.37 701.5 470.37 S 733.53 450.02 763.15 450.02 S 794.27 466.27 824.8 466.27 S 856.29 453.1 886.46 453.1 S 918.35 460.44 948.11 460.44 S 980.13 444.72 1009.76 444.72 S 1040.65 460.7 1071.42 460.7 S 1103.11 452.42 1133.07 452.42 S 1164.34 462.13 1194.72 462.13 S 1226.19 443.07 1256.38 443.07 S 1288.01 464.63 1318.03 464.63 S 1349.25 446.39 1379.69 446.39 S 1411.05 462.95 1441.34 462.95 S 1473.17 449.09 1502.99 449.09 L 1466 581 L -100 581 Z" fill="#adbcbc" stroke-width="0" transform="matrix(1,0,0,1,6.4136857986450195,0)" style="transform:matrix(1, 0, 0, 1, 6.41369, 0);animation-play-state:paused" ></path>
<path d="M -100 453.29 C -67.24 464.35 -67.83 463.52 -36.34 463.52 S -3.7 464.22 27.32 464.22 S 59.77 490.73 90.98 490.73 S 123.43 466.59 154.63 466.59 S 187.75 480.63 218.29 480.63 S 250.96 460.7 281.95 460.7 S 314.3 464.98 345.61 464.98 S 377.54 460.38 409.27 460.38 S 442.4 482.18 472.93 482.18 S 504.78 462.6 536.59 462.6 S 568.95 479.83 600.24 479.83 S 633.37 457.62 663.9 457.62 S 696.37 476.67 727.56 476.67 S 760.49 456.85 791.22 456.85 S 824.23 476.59 854.88 476.59 S 888.02 454.18 918.54 454.18 S 950.67 486.65 982.2 486.65 S 1015.45 465.68 1045.85 465.68 S 1078.41 486.53 1109.51 486.53 S 1141.98 456.65 1173.17 456.65 S 1205.14 480.21 1236.83 480.21 S 1269.92 489.98 1300.49 489.98 S 1332.72 479.32 1364.15 479.32 S 1396 481.62 1427.8 481.62 S 1459.69 481.21 1491.46 481.21 L 1466 581 L -100 581 Z" fill="#c6d2d2" stroke-width="0" transform="matrix(1,0,0,1,3.5863142013549805,0)" style="transform:matrix(1, 0, 0, 1, 3.58631, 0);animation-play-state:paused" ></path>
<path d="M -100 476.15 C -65.79 481.94 -66.12 497.48 -34.2 497.48 S -0.5 479.6 31.6 479.6 S 65.72 505.38 97.39 505.38 S 130.79 467.77 163.19 467.77 S 196.95 495.69 228.99 495.69 S 261.99 471.9 294.79 471.9 S 327.78 469.72 360.59 469.72 S 393.91 477.84 426.39 477.84 S 460.02 497.32 492.18 497.32 S 525.32 480.33 557.98 480.33 S 590.92 495.27 623.78 495.27 S 657.07 470.58 689.58 470.58 S 723.37 496.41 755.38 496.41 S 788.99 477.55 821.18 477.55 S 854.3 498.21 886.97 498.21 S 920.18 469.71 952.77 469.71 S 986.79 500.22 1018.57 500.22 S 1051.86 479.39 1084.37 479.39 S 1117.72 507.99 1150.17 507.99 S 1183.24 472.22 1215.97 472.22 S 1249.77 495.65 1281.76 495.65 S 1315.19 471.36 1347.56 471.36 S 1381.91 507.77 1413.36 507.77 S 1447.36 474 1479.16 474 L 1466 581 L -100 581 Z" fill="#dfe8e8" stroke-width="0" transform="matrix(1,0,0,1,1.1340198516845703,0)" style="transform:matrix(1, 0, 0, 1, 1.13402, 0);animation-play-state:paused" ></path></g></svg>