<svg id="e4ILD20OkGf1" xmlns="http://www.w3.org/2000/svg" xmlns:xlink="http://www.w3.org/1999/xlink" viewBox="0 0 1366 581" shape-rendering="geometricPrecision" text-rendering="geometricPrecision"><g clip-path="url(#e4ILD20OkGf15)"><g><rect width="1366" height="581" rx="0" ry="0" fill="#021027"/><path id="e4ILD20OkGf5" d="M-100,344.43c26.24,3.83,26.01.71,50.52.71s25.72,3.69,50.51,3.69s25.54-3.97,50.52-3.97s26.07-4.62,50.51-4.62s26.03,9.55,50.52,9.55s25.91-1.44,50.52-1.44s26.16-8.98,50.51-8.98s26,8.03,50.52,8.03s25.59-8.64,50.52-8.64s26.3,7.79,50.51,7.79s25.49,2.72,50.52,2.72s25.69-4.69,50.51-4.69s25.62-1.03,50.52-1.03s26.62,4.23,50.52,4.23s25.68-9.1,50.51-9.1s25.57,9.65,50.52,9.65s25.29-9.35,50.51-9.35s25.78-.53,50.52-.53s26.43,1.95,50.52,1.95s25.39-.46,50.51-.46s26.34,8.49,50.52,8.49s25.55-2.06,50.51-2.06s25.5,3.76,50.52,3.76s25.63.23,50.52.23s26.52-7.34,50.51-7.34s25.78,4.64,50.52,4.64s25.78-8.65,50.52-8.65s25.48-.85,50.51-.85s25.68,8.8,50.52,8.8s25.63,2.99,50.51,2.99s25.62-6.31,50.52-6.31s26.04-.04,50.52-.04L1466,581h-1566v-236.57Z" transform="translate(-8.26001 40.419998)" fill="#0f3135"/><path id="e4ILD20OkGf6" d="M-98.866,359.79c26.01.64,26.42.26,51.85.26s26.82,8.13,51.86003,8.13s27.33997-.55,51.84997-.55s27.04-1.7,51.86-1.7s26.52,1.13,51.85,1.13s26-3.25,51.86-3.25s25.96-1.72,51.85-1.72s26.5-4.12,51.85-4.12s27.07,1.79,51.86,1.79s26.83,2.72,51.85,2.72s26.92.37,51.86.37s26.77,2.1,51.85,2.1s26.65-.62,51.86-.62s26.64-11.46,51.85-11.46s26.75,15.79,51.85,15.79s26.81-8.94,51.86-8.94s26.14,8.24,51.85,8.24s26.09-8.45,51.86-8.45s26.6-.55,51.85-.55s27.14-3.94,51.86-3.94s26.42,1.2,51.85,1.2c25.426,0,26.066,11.14,51.846,11.14s25.97.24,51.86.24s26.24-3.77,51.85-3.77s27.21.87,51.86.87s26.65.34,51.85.34s26.44-.66,51.86-.66s26.35-5.14,51.85-5.14s27.14,7.64,51.85,7.64s26.15-13.38,51.86-13.38s26.66,8.93,51.85,8.93L1467.13,581h-1565.996v-221.21Z" transform="translate(-4.871979 33.065002)" fill="#254346"/><path id="e4ILD20OkGf7" d="M-96.4137,369.13c27.41-3.06,27.15,12.78,53.27,12.78s26.97-2.85,53.26-2.85s26.65-1.93,53.27-1.93s26.93-3.3,53.2597-3.3c26.33,0,27.16,5.05,53.27,5.05s27.73-4.97,53.26-4.97s26.96,1.58,53.27,1.58s26.76-5.49,53.26-5.49s27.26,14.74,53.27,14.74s27.56-10.19,53.26-10.19s27.14,5.54,53.27,5.54s27.09-11.2,53.26-11.2s28,16.53,53.27,16.53s26.71-17.27,53.26-17.27s26.86,10.2,53.27,10.2s27.53,5.94,53.26,5.94s26.98-4.89,53.27-4.89s28.01-8.29,53.27-8.29s27.09,6.42,53.26,6.42s27.27-5.11,53.27-5.11s27.94,9.28,53.264,9.28c25.32,0,27.19-4.71,53.27-4.71s26.7,5.58,53.26,5.58s26.77-9.76,53.27-9.76s27.89,8.38,53.26,8.38s27.57-7.13,53.27-7.13s27.84,7.06,53.26,7.06s27.19-11.37,53.27-11.37s26.74,5.8,53.26,5.8s27.54-9.14,53.27-9.14L1469.59,581h-1566.0037v-211.87Z" transform="translate(-2.568176 26.294998)" fill="#3b5658"/><path d="M-93.5863,381.07c28.55,3.64,27.46,16.07,54.76,16.07s27.4-6.8,54.75-6.8s27.54,10.14,54.76,10.14s28.38-4.98,54.7503-4.98c26.37,0,28.1,4.08,54.76,4.08s28.04-4.69,54.75-4.69s28.18-3.21,54.76-3.21s28.1-5.17,54.75-5.17s28.83-1.61,54.76-1.61s28.28-1.03,54.75-1.03s27.93,15.07,54.76,15.07s27.9-10.99,54.75-10.99s27.52,5.59,54.76,5.59s28.82-1.65,54.75-1.65s28.49,1.84,54.76,1.84s28.06,2.68,54.75,2.68s27.6-5.6,54.76-5.6s27.99,9.44,54.75,9.44s27.63-7.88,54.76-7.88s28.23-5.02,54.746-5.02c26.52,0,28.18,14.94,54.76,14.94s28.63-21.36,54.76-21.36s28.53,13.53,54.75,13.53s27.74-3.17,54.76-3.17s27.81,3.7,54.75,3.7s27.49-.97,54.76-.97s28.6-2.65,54.75-2.65s28.64,2.16,54.76,2.16s28.04,4.05,54.75,4.05L1472.41,581h-1565.9963v-199.93Z" transform="translate(19.638123 19.035004)" fill="#51696b"/><path id="e4ILD20OkGf9" d="M-91.134,406.95c28.66.32,29.37,3.96,56.33,3.96s29.28997-10.33,56.33-10.33s28.99,16.46,56.33,16.46s28.43-8.1,56.33-8.1s29.34,6.35,56.33,6.35s28.44-18.57,56.34-18.57s28.57,24.44,56.33,24.44s28.64-14.42,56.33-14.42s28.47,3.22,56.33,3.22s29.25-9.19,56.33-9.19s29.28,5.27,56.33,5.27s29.14.34,56.33.34s29.4,7.13,56.33,7.13s28.46-1.82,56.33-1.82s28.18,2.45,56.33,2.45s28.66-12.62,56.33-12.62s29.27-4.81,56.34-4.81s28.96,6.05,56.33,6.05s28.73,13.01,56.33,13.01c27.604,0,29.304-15.71,56.334-15.71s29.53,11.07,56.33,11.07s28.32-7.08,56.33-7.08s28.5,6.28,56.33,6.28s28.91-4.6,56.33-4.6s29.56,3.67,56.33,3.67s28.86-10.95,56.33-10.95s29.16,9.04,56.34,9.04s28.56.81,56.33.81L1474.87,581h-1566.004v-174.05Z" transform="translate(2.496979 11.145004)" fill="#677d7f"/><path id="e4ILD20OkGf10" d="M-90,432.86c29.71,3.87,30.13,5.78,58,5.78s30.41-21.12,58-21.12s30.15,10.24,58,10.24s30.01,6,58,6s30.28,1.36,58,1.36s29.87-18.34,58-18.34s29.67,9.57,58,9.57s29.74-6.58,58-6.58s30.05,4.85,58,4.85s29.73-1.78,58-1.78s30.22,4.76,58,4.76s29.32-9.09,58-9.09s29.95,15.73,58,15.73s29.85-24.5,58-24.5s29.01,18.65,58,18.65s29.43-6.33,58-6.33s30.1,6.57,58,6.57s30.22-6.34,58-6.34s30.13,4.05,58,4.05s29.95-3.53,58-3.53s29.7,6.46,58,6.46s29.84-7.37,58-7.37s30.15,10.08,58,10.08s29.92-19.32,58-19.32s29.17,22.54,58,22.54s29.97-22.62,58-22.62s29.29,25.35,58,25.35s29.11-24.78,58-24.78L1476,581h-1566v-148.14Z" transform="translate(-22 4.630005)" fill="#7e9193"/><path d="M-91.134,435.21c30.6-6.33,30.56,15.21,59.77,15.21s31.329967-16.67,59.77-16.67s30.37,10.12,59.77,10.12s31.12-10.21,59.77-10.21s29.93,19.57,59.77,19.57s30.74-21.29,59.78-21.29s30.33,23.41,59.77,23.41s30.8-26.72,59.77-26.72s30.62,24.58,59.77,24.58s30.02-18.18,59.77-18.18s31.04,17.79,59.77,17.79s30.43-19.89,59.77-19.89s30.08,19.04,59.77,19.04s30.99-21.31,59.77-21.31s30.46,20.73,59.77,20.73s30.58-13.74,59.78-13.74s31.12,12.42,59.77,12.42s30.74-25.72,59.77-25.72c29.034,0,30.284,24.85,59.774,24.85s30.76-20.49,59.77-20.49s30.27,7.28,59.77,7.28s30.46-.6,59.77-.6s30.68,20.53,59.77,20.53s31.21-21.01,59.77-21.01s30.5,16.65,59.77,16.65s30.83-25.59,59.78-25.59s30.78,15.68,59.77,15.68L1474.87,581h-1566.004v-145.79Z" transform="translate(-15.777985-2.675003)" fill="#95a6a7"/><path id="e4ILD20OkGf12" d="M-93.5863,442.59c31.17-.28,31.21,22.75,61.65,22.75s31.699995-23.78,61.66-23.78s31.55,17.66,61.65,17.66c30.1003,0,32.1003-10.68,61.6503-10.68s31.87,21.15,61.66,21.15s31.69-26.42,61.65-26.42s32.14,28,61.65,28s31.72.27,61.66.27s31.32-1.71,61.65-1.71s32.11-23.42,61.66-23.42s30.96,24.63,61.65,24.63s31.36-25.2,61.65-25.2s31.78,24.53,61.66,24.53s32.03-20.35,61.65-20.35s31.12,16.25,61.65,16.25s31.49-13.17,61.66-13.17s31.89,7.34,61.65,7.34s32.02-15.72,61.646-15.72c29.63,0,30.89,15.98,61.66,15.98s31.69-8.28,61.65-8.28s31.27,9.71,61.65,9.71s31.47-19.06,61.66-19.06s31.63,21.56,61.65,21.56s31.22-18.24,61.66-18.24s31.36,16.56,61.65,16.56s31.83-13.86,61.65-13.86L1472.41,581h-1565.9963v-138.41Z" transform="translate(-7.90686-11.279999)" fill="#adbcbc"/><path id="e4ILD20OkGf13" d="M-96.4137,453.29c32.76,11.06,32.17,10.23,63.66,10.23s32.640003.7,63.66.7s32.45,26.51,63.66,26.51c31.2097,0,32.4497-24.14,63.6497-24.14s33.12,14.04,63.66,14.04s32.67-19.93,63.66-19.93s32.35,4.28,63.66,4.28s31.93-4.6,63.66-4.6s33.13,21.8,63.66,21.8s31.85-19.58,63.66-19.58s32.36,17.23,63.65,17.23s33.13-22.21,63.66-22.21s32.47,19.05,63.66,19.05s32.93-19.82,63.66-19.82s33.01,19.74,63.66,19.74s33.14-22.41,63.66-22.41s32.13,32.47,63.66,32.47c31.534,0,33.254-20.97,63.654-20.97s32.56,20.85,63.66,20.85s32.47-29.88,63.66-29.88s31.97,23.56,63.66,23.56s33.09,9.77,63.66,9.77s32.23-10.66,63.66-10.66s31.85,2.3,63.65,2.3s31.89-.41,63.66-.41L1469.59,581h-1566.0037v-127.71Z" transform="translate(.681824-17.145004)" fill="#afc5c5"/><path d="M-98.866,476.15c34.21,5.79,33.88,21.33,65.8,21.33s33.700041-17.88,65.8-17.88s34.12,25.78,65.79,25.78s33.4-37.61,65.8-37.61s33.76,27.92,65.8,27.92s33-23.79,65.8-23.79s32.99-2.18,65.8-2.18s33.32,8.12,65.8,8.12s33.63,19.48,65.79,19.48s33.14-16.99,65.8-16.99s32.94,14.94,65.8,14.94s33.29-24.69,65.8-24.69s33.79,25.83,65.8,25.83s33.61-18.86,65.8-18.86s33.12,20.66,65.79,20.66s33.21-28.5,65.8-28.5s34.02,30.51,65.796,30.51c31.78,0,33.29-20.83,65.8-20.83s33.35,28.6,65.8,28.6s33.07-35.77,65.8-35.77s33.8,23.43,65.79,23.43s33.43-24.29,65.8-24.29s34.35,36.41,65.8,36.41s34-33.77,65.8-33.77l-13.16,107h-1565.996v-104.85Z" transform="translate(9.287994-2.675003)" fill="#c4d2d2"/></g><clipPath id="e4ILD20OkGf15"><rect width="1366" height="581" rx="0" ry="0" fill="#fff"/></clipPath></g><script><![CDATA[!function(t,n){"object"==typeof exports&&"undefined"!=typeof module?module.exports=n():"function"==typeof define&&define.amd?define(n):((t="undefined"!=typeof globalThis?globalThis:t||self).__SVGATOR_PLAYER__=t.__SVGATOR_PLAYER__||{},t.__SVGATOR_PLAYER__["5c7f360c"]=n())}(this,(function(){"use strict";function t(t,n){var e=Object.keys(t);if(Object.getOwnPropertySymbols){var r=Object.getOwnPropertySymbols(t);n&&(r=r.filter((function(n){return Object.getOwnPropertyDescriptor(t,n).enumerable}))),e.push.apply(e,r)}return e}function n(n){for(var e=1;e<arguments.length;e++){var r=null!=arguments[e]?arguments[e]:{};e%2?t(Object(r),!0).forEach((function(t){o(n,t,r[t])})):Object.getOwnPropertyDescriptors?Object.defineProperties(n,Object.getOwnPropertyDescriptors(r)):t(Object(r)).forEach((function(t){Object.defineProperty(n,t,Object.getOwnPropertyDescriptor(r,t))}))}return n}function e(t){return(e="function"==typeof Symbol&&"symbol"==typeof Symbol.iterator?function(t){return typeof t}:function(t){return t&&"function"==typeof Symbol&&t.constructor===Symbol&&t!==Symbol.prototype?"symbol":typeof t})(t)}function r(t,n){if(!(t instanceof n))throw new TypeError("Cannot call a class as a function")}function i(t,n){for(var e=0;e<n.length;e++){var r=n[e];r.enumerable=r.enumerable||!1,r.configurable=!0,"value"in r&&(r.writable=!0),Object.defineProperty(t,r.key,r)}}function u(t,n,e){return n&&i(t.prototype,n),e&&i(t,e),t}function o(t,n,e){return n in t?Object.defineProperty(t,n,{value:e,enumerable:!0,configurable:!0,writable:!0}):t[n]=e,t}function a(t){return(a=Object.setPrototypeOf?Object.getPrototypeOf:function(t){return t.__proto__||Object.getPrototypeOf(t)})(t)}function l(t,n){return(l=Object.setPrototypeOf||function(t,n){return t.__proto__=n,t})(t,n)}function s(){if("undefined"==typeof Reflect||!Reflect.construct)return!1;if(Reflect.construct.sham)return!1;if("function"==typeof Proxy)return!0;try{return Boolean.prototype.valueOf.call(Reflect.construct(Boolean,[],(function(){}))),!0}catch(t){return!1}}function f(t,n,e){return(f=s()?Reflect.construct:function(t,n,e){var r=[null];r.push.apply(r,n);var i=new(Function.bind.apply(t,r));return e&&l(i,e.prototype),i}).apply(null,arguments)}function c(t,n){if(n&&("object"==typeof n||"function"==typeof n))return n;if(void 0!==n)throw new TypeError("Derived constructors may only return object or undefined");return function(t){if(void 0===t)throw new ReferenceError("this hasn't been initialised - super() hasn't been called");return t}(t)}function h(t,n,e){return(h="undefined"!=typeof Reflect&&Reflect.get?Reflect.get:function(t,n,e){var r=function(t,n){for(;!Object.prototype.hasOwnProperty.call(t,n)&&null!==(t=a(t)););return t}(t,n);if(r){var i=Object.getOwnPropertyDescriptor(r,n);return i.get?i.get.call(e):i.value}})(t,n,e||t)}function v(t){return function(t){if(Array.isArray(t))return y(t)}(t)||function(t){if("undefined"!=typeof Symbol&&null!=t[Symbol.iterator]||null!=t["@@iterator"])return Array.from(t)}(t)||function(t,n){if(!t)return;if("string"==typeof t)return y(t,n);var e=Object.prototype.toString.call(t).slice(8,-1);"Object"===e&&t.constructor&&(e=t.constructor.name);if("Map"===e||"Set"===e)return Array.from(t);if("Arguments"===e||/^(?:Ui|I)nt(?:8|16|32)(?:Clamped)?Array$/.test(e))return y(t,n)}(t)||function(){throw new TypeError("Invalid attempt to spread non-iterable instance.\nIn order to be iterable, non-array objects must have a [Symbol.iterator]() method.")}()}function y(t,n){(null==n||n>t.length)&&(n=t.length);for(var e=0,r=new Array(n);e<n;e++)r[e]=t[e];return r}Number.isInteger||(Number.isInteger=function(t){return"number"==typeof t&&isFinite(t)&&Math.floor(t)===t}),Number.EPSILON||(Number.EPSILON=2220446049250313e-31);var g=d(Math.pow(10,-6));function d(t){var n=arguments.length>1&&void 0!==arguments[1]?arguments[1]:6;if(Number.isInteger(t))return t;var e=Math.pow(10,n);return Math.round((+t+Number.EPSILON)*e)/e}function p(t,n){var e=arguments.length>2&&void 0!==arguments[2]?arguments[2]:g;return Math.abs(t-n)<e}var m=Math.PI/180;function b(t){return t}function w(t,n,e){var r=1-e;return 3*e*r*(t*r+n*e)+e*e*e}function x(){var t=arguments.length>0&&void 0!==arguments[0]?arguments[0]:0,n=arguments.length>1&&void 0!==arguments[1]?arguments[1]:0,e=arguments.length>2&&void 0!==arguments[2]?arguments[2]:1,r=arguments.length>3&&void 0!==arguments[3]?arguments[3]:1;return t<0||t>1||e<0||e>1?null:p(t,n)&&p(e,r)?b:function(i){if(i<=0)return t>0?i*n/t:0===n&&e>0?i*r/e:0;if(i>=1)return e<1?1+(i-1)*(r-1)/(e-1):1===e&&t<1?1+(i-1)*(n-1)/(t-1):1;for(var u,o=0,a=1;o<a;){var l=w(t,e,u=(o+a)/2);if(p(i,l))break;l<i?o=u:a=u}return w(n,r,u)}}function A(){return 1}function k(t){return 1===t?1:0}function _(){var t=arguments.length>0&&void 0!==arguments[0]?arguments[0]:1,n=arguments.length>1&&void 0!==arguments[1]?arguments[1]:0;if(1===t){if(0===n)return k;if(1===n)return A}var e=1/t;return function(t){return t>=1?1:(t+=n*e)-t%e}}var S=Math.sin,O=Math.cos,j=Math.acos,M=Math.asin,P=Math.tan,E=Math.atan2,I=Math.PI/180,R=180/Math.PI,F=Math.sqrt,N=function(){function t(){var n=arguments.length>0&&void 0!==arguments[0]?arguments[0]:1,e=arguments.length>1&&void 0!==arguments[1]?arguments[1]:0,i=arguments.length>2&&void 0!==arguments[2]?arguments[2]:0,u=arguments.length>3&&void 0!==arguments[3]?arguments[3]:1,o=arguments.length>4&&void 0!==arguments[4]?arguments[4]:0,a=arguments.length>5&&void 0!==arguments[5]?arguments[5]:0;r(this,t),this.m=[n,e,i,u,o,a],this.i=null,this.w=null,this.s=null}return u(t,[{key:"determinant",get:function(){var t=this.m;return t[0]*t[3]-t[1]*t[2]}},{key:"isIdentity",get:function(){if(null===this.i){var t=this.m;this.i=1===t[0]&&0===t[1]&&0===t[2]&&1===t[3]&&0===t[4]&&0===t[5]}return this.i}},{key:"point",value:function(t,n){var e=this.m;return{x:e[0]*t+e[2]*n+e[4],y:e[1]*t+e[3]*n+e[5]}}},{key:"translateSelf",value:function(){var t=arguments.length>0&&void 0!==arguments[0]?arguments[0]:0,n=arguments.length>1&&void 0!==arguments[1]?arguments[1]:0;if(!t&&!n)return this;var e=this.m;return e[4]+=e[0]*t+e[2]*n,e[5]+=e[1]*t+e[3]*n,this.w=this.s=this.i=null,this}},{key:"rotateSelf",value:function(){var t=arguments.length>0&&void 0!==arguments[0]?arguments[0]:0;if(t%=360){var n=S(t*=I),e=O(t),r=this.m,i=r[0],u=r[1];r[0]=i*e+r[2]*n,r[1]=u*e+r[3]*n,r[2]=r[2]*e-i*n,r[3]=r[3]*e-u*n,this.w=this.s=this.i=null}return this}},{key:"scaleSelf",value:function(){var t=arguments.length>0&&void 0!==arguments[0]?arguments[0]:1,n=arguments.length>1&&void 0!==arguments[1]?arguments[1]:1;if(1!==t||1!==n){var e=this.m;e[0]*=t,e[1]*=t,e[2]*=n,e[3]*=n,this.w=this.s=this.i=null}return this}},{key:"skewSelf",value:function(t,n){if(n%=360,(t%=360)||n){var e=this.m,r=e[0],i=e[1],u=e[2],o=e[3];t&&(t=P(t*I),e[2]+=r*t,e[3]+=i*t),n&&(n=P(n*I),e[0]+=u*n,e[1]+=o*n),this.w=this.s=this.i=null}return this}},{key:"resetSelf",value:function(){var t=arguments.length>0&&void 0!==arguments[0]?arguments[0]:1,n=arguments.length>1&&void 0!==arguments[1]?arguments[1]:0,e=arguments.length>2&&void 0!==arguments[2]?arguments[2]:0,r=arguments.length>3&&void 0!==arguments[3]?arguments[3]:1,i=arguments.length>4&&void 0!==arguments[4]?arguments[4]:0,u=arguments.length>5&&void 0!==arguments[5]?arguments[5]:0,o=this.m;return o[0]=t,o[1]=n,o[2]=e,o[3]=r,o[4]=i,o[5]=u,this.w=this.s=this.i=null,this}},{key:"recomposeSelf",value:function(){var t=arguments.length>0&&void 0!==arguments[0]?arguments[0]:null,n=arguments.length>1&&void 0!==arguments[1]?arguments[1]:null,e=arguments.length>2&&void 0!==arguments[2]?arguments[2]:null,r=arguments.length>3&&void 0!==arguments[3]?arguments[3]:null,i=arguments.length>4&&void 0!==arguments[4]?arguments[4]:null;return this.isIdentity||this.resetSelf(),t&&(t.x||t.y)&&this.translateSelf(t.x,t.y),n&&this.rotateSelf(n),e&&(e.x&&this.skewSelf(e.x,0),e.y&&this.skewSelf(0,e.y)),!r||1===r.x&&1===r.y||this.scaleSelf(r.x,r.y),i&&(i.x||i.y)&&this.translateSelf(i.x,i.y),this}},{key:"decompose",value:function(){var t=arguments.length>0&&void 0!==arguments[0]?arguments[0]:0,n=arguments.length>1&&void 0!==arguments[1]?arguments[1]:0,e=this.m,r=e[0]*e[0]+e[1]*e[1],i=[[e[0],e[1]],[e[2],e[3]]],u=F(r);if(0===u)return{origin:{x:d(e[4]),y:d(e[5])},translate:{x:d(t),y:d(n)},scale:{x:0,y:0},skew:{x:0,y:0},rotate:0};i[0][0]/=u,i[0][1]/=u;var o=e[0]*e[3]-e[1]*e[2]<0;o&&(u=-u);var a=i[0][0]*i[1][0]+i[0][1]*i[1][1];i[1][0]-=i[0][0]*a,i[1][1]-=i[0][1]*a;var l=F(i[1][0]*i[1][0]+i[1][1]*i[1][1]);if(0===l)return{origin:{x:d(e[4]),y:d(e[5])},translate:{x:d(t),y:d(n)},scale:{x:d(u),y:0},skew:{x:0,y:0},rotate:0};i[1][0]/=l,i[1][1]/=l,a/=l;var s=0;return i[1][1]<0?(s=j(i[1][1])*R,i[0][1]<0&&(s=360-s)):s=M(i[0][1])*R,o&&(s=-s),a=E(a,F(i[0][0]*i[0][0]+i[0][1]*i[0][1]))*R,o&&(a=-a),{origin:{x:d(e[4]),y:d(e[5])},translate:{x:d(t),y:d(n)},scale:{x:d(u),y:d(l)},skew:{x:d(a),y:0},rotate:d(s)}}},{key:"clone",value:function(){var t=this.m;return new this.constructor(t[0],t[1],t[2],t[3],t[4],t[5])}},{key:"toString",value:function(){var t=arguments.length>0&&void 0!==arguments[0]?arguments[0]:" ";if(null===this.s){var n=this.m.map((function(t){return d(t)}));1===n[0]&&0===n[1]&&0===n[2]&&1===n[3]?this.s="translate("+n[4]+t+n[5]+")":this.s="matrix("+n.join(t)+")"}return this.s}}],[{key:"create",value:function(t){return t?Array.isArray(t)?f(this,v(t)):t instanceof this?t.clone():(new this).recomposeSelf(t.origin,t.rotate,t.skew,t.scale,t.translate):new this}}]),t}();function T(t,n,e){return t>=.5?e:n}function q(t,n,e){return 0===t||n===e?n:t*(e-n)+n}function B(t,n,e){var r=q(t,n,e);return r<=0?0:r}function L(t,n,e){var r=q(t,n,e);return r<=0?0:r>=1?1:r}function C(t,n,e){return 0===t?n:1===t?e:{x:q(t,n.x,e.x),y:q(t,n.y,e.y)}}function D(t,n,e){var r=function(t,n,e){return Math.round(q(t,n,e))}(t,n,e);return r<=0?0:r>=255?255:r}function z(t,n,e){return 0===t?n:1===t?e:{r:D(t,n.r,e.r),g:D(t,n.g,e.g),b:D(t,n.b,e.b),a:q(t,null==n.a?1:n.a,null==e.a?1:e.a)}}function V(t,n){for(var e=[],r=0;r<t;r++)e.push(n);return e}function G(t,n){if(--n<=0)return t;var e=(t=Object.assign([],t)).length;do{for(var r=0;r<e;r++)t.push(t[r])}while(--n>0);return t}var Y,$=function(){function t(n){r(this,t),this.list=n,this.length=n.length}return u(t,[{key:"setAttribute",value:function(t,n){for(var e=this.list,r=0;r<this.length;r++)e[r].setAttribute(t,n)}},{key:"removeAttribute",value:function(t){for(var n=this.list,e=0;e<this.length;e++)n[e].removeAttribute(t)}},{key:"style",value:function(t,n){for(var e=this.list,r=0;r<this.length;r++)e[r].style[t]=n}}]),t}(),U=/-./g,Q=function(t,n){return n.toUpperCase()};function H(t){return"function"==typeof t?t:T}function J(t){return t?"function"==typeof t?t:Array.isArray(t)?function(t){var n=arguments.length>1&&void 0!==arguments[1]?arguments[1]:b;if(!Array.isArray(t))return n;switch(t.length){case 1:return _(t[0])||n;case 2:return _(t[0],t[1])||n;case 4:return x(t[0],t[1],t[2],t[3])||n}return n}(t,null):function(t,n){var e=arguments.length>2&&void 0!==arguments[2]?arguments[2]:b;switch(t){case"linear":return b;case"steps":return _(n.steps||1,n.jump||0)||e;case"bezier":case"cubic-bezier":return x(n.x1||0,n.y1||0,n.x2||0,n.y2||0)||e}return e}(t.type,t.value,null):null}function Z(t,n,e){var r=arguments.length>3&&void 0!==arguments[3]&&arguments[3],i=n.length-1;if(t<=n[0].t)return r?[0,0,n[0].v]:n[0].v;if(t>=n[i].t)return r?[i,1,n[i].v]:n[i].v;var u,o=n[0],a=null;for(u=1;u<=i;u++){if(!(t>n[u].t)){a=n[u];break}o=n[u]}return null==a?r?[i,1,n[i].v]:n[i].v:o.t===a.t?r?[u,1,a.v]:a.v:(t=(t-o.t)/(a.t-o.t),o.e&&(t=o.e(t)),r?[u,t,e(t,o.v,a.v)]:e(t,o.v,a.v))}function K(t,n){var e=arguments.length>2&&void 0!==arguments[2]?arguments[2]:null;return t&&t.length?"function"!=typeof n?null:("function"!=typeof e&&(e=null),function(r){var i=Z(r,t,n);return null!=i&&e&&(i=e(i)),i}):null}function W(t,n){return t.t-n.t}function X(t,n,r,i,u){var o,a="@"===r[0],l="#"===r[0],s=Y[r],f=T;switch(a?(o=r.substr(1),r=o.replace(U,Q)):l&&(r=r.substr(1)),e(s)){case"function":if(f=s(i,u,Z,J,r,a,n,t),l)return f;break;case"string":f=K(i,H(s));break;case"object":if((f=K(i,H(s.i),s.f))&&"function"==typeof s.u)return s.u(n,f,r,a,t)}return f?function(t,n,e){if(arguments.length>3&&void 0!==arguments[3]&&arguments[3])return t instanceof $?function(r){return t.style(n,e(r))}:function(r){return t.style[n]=e(r)};if(Array.isArray(n)){var r=n.length;return function(i){var u=e(i);if(null==u)for(var o=0;o<r;o++)t[o].removeAttribute(n);else for(var a=0;a<r;a++)t[a].setAttribute(n,u)}}return function(r){var i=e(r);null==i?t.removeAttribute(n):t.setAttribute(n,i)}}(n,r,f,a):null}function tt(t,n,r,i){if(!i||"object"!==e(i))return null;var u=null,o=null;return Array.isArray(i)?o=function(t){if(!t||!t.length)return null;for(var n=0;n<t.length;n++)t[n].e&&(t[n].e=J(t[n].e));return t.sort(W)}(i):(o=i.keys,u=i.data||null),o?X(t,n,r,o,u):null}function nt(t,n,e){if(!e)return null;var r=[];for(var i in e)if(e.hasOwnProperty(i)){var u=tt(t,n,i,e[i]);u&&r.push(u)}return r.length?r:null}function et(t,n){if(!n.settings.duration||n.settings.duration<0)return null;var e,r,i,u,o,a=function(t,n){if(!n)return null;var e=[];if(Array.isArray(n))for(var r=n.length,i=0;i<r;i++){var u=n[i];if(2===u.length){var o=null;if("string"==typeof u[0])o=t.getElementById(u[0]);else if(Array.isArray(u[0])){o=[];for(var a=0;a<u[0].length;a++)if("string"==typeof u[0][a]){var l=t.getElementById(u[0][a]);l&&o.push(l)}o=o.length?1===o.length?o[0]:new $(o):null}if(o){var s=nt(t,o,u[1]);s&&(e=e.concat(s))}}}else for(var f in n)if(n.hasOwnProperty(f)){var c=t.getElementById(f);if(c){var h=nt(t,c,n[f]);h&&(e=e.concat(h))}}return e.length?e:null}(t,n.elements);return a?(e=a,r=n.settings,i=r.duration,u=e.length,o=null,function(t,n){var a=r.iterations||1/0,l=(r.alternate&&a%2==0)^r.direction>0?i:0,s=t%i,f=1+(t-s)/i;n*=r.direction,r.alternate&&f%2==0&&(n=-n);var c=!1;if(f>a)s=l,c=!0,-1===r.fill&&(s=r.direction>0?0:i);else if(n<0&&(s=i-s),s===o)return!1;o=s;for(var h=0;h<u;h++)e[h](s);return c}):null}function rt(t,n){if(Y=n,!t||!t.root||!Array.isArray(t.animations))return null;var e=function(t){for(var n=document.getElementsByTagName("svg"),e=0;e<n.length;e++)if(n[e].id===t.root&&!n[e].svgatorAnimation)return n[e].svgatorAnimation=!0,n[e];return null}(t);if(!e)return null;var r=t.animations.map((function(t){return et(e,t)})).filter((function(t){return!!t}));return r.length?{svg:e,animations:r,animationSettings:t.animationSettings,options:t.options||void 0}:null}function it(t){return+("0x"+(t.replace(/[^0-9a-fA-F]+/g,"")||27))}function ut(t,n,e){return!t||!e||n>t.length?t:t.substring(0,n)+ut(t.substring(n+1),e,e)}function ot(t){var n=arguments.length>1&&void 0!==arguments[1]?arguments[1]:27;return!t||t%n?t%n:ot(t/n,n)}function at(t,n,e){if(t&&t.length){var r=it(e),i=it(n),u=ot(r)+5,o=ut(t,ot(r,5),u);return o=o.replace(/\x7c$/g,"==").replace(/\x2f$/g,"="),o=function(t,n,e){var r=+("0x"+t.substring(0,4));t=t.substring(4);for(var i=n%r+e%27,u=[],o=0;o<t.length;o+=2)if("|"!==t[o]){var a=+("0x"+t[o]+t[o+1])-i;u.push(a)}else{var l=+("0x"+t.substring(o+1,o+1+4))-i;o+=3,u.push(l)}return String.fromCharCode.apply(String,u)}(o=(o=atob(o)).replace(/[\x41-\x5A]/g,""),i,r),o=JSON.parse(o)}}var lt=[{key:"alternate",def:!1},{key:"fill",def:1},{key:"iterations",def:0},{key:"direction",def:1},{key:"speed",def:1},{key:"fps",def:100}],st=function(){function t(n,e){var i=this,u=arguments.length>2&&void 0!==arguments[2]?arguments[2]:null;r(this,t),this._id=0,this._running=!1,this._rollingBack=!1,this._animations=n,this._settings=e,(!u||u<"2022-05-02")&&delete this._settings.speed,lt.forEach((function(t){i._settings[t.key]=i._settings[t.key]||t.def})),this.duration=e.duration,this.offset=e.offset||0,this.rollbackStartOffset=0}return u(t,[{key:"alternate",get:function(){return this._settings.alternate}},{key:"fill",get:function(){return this._settings.fill}},{key:"iterations",get:function(){return this._settings.iterations}},{key:"direction",get:function(){return this._settings.direction}},{key:"speed",get:function(){return this._settings.speed}},{key:"fps",get:function(){return this._settings.fps}},{key:"maxFiniteDuration",get:function(){return this.iterations>0?this.iterations*this.duration:this.duration}},{key:"_apply",value:function(t){for(var n=arguments.length>1&&void 0!==arguments[1]?arguments[1]:{},e=this._animations,r=e.length,i=0,u=0;u<r;u++)n[u]?i++:(n[u]=e[u](t,1),n[u]&&i++);return i}},{key:"_rollback",value:function(t){var n=this,e=1/0,r=null;this.rollbackStartOffset=t,this._rollingBack=!0,this._running=!0;this._id=window.requestAnimationFrame((function i(u){if(n._rollingBack){null==r&&(r=u);var o=Math.round(t-(u-r)*n.speed);if(o>n.duration&&e!==1/0){var a=!!n.alternate&&o/n.duration%2>1,l=o%n.duration;o=(l+=a?n.duration:0)||n.duration}var s=(n.fps?1e3/n.fps:0)*n.speed,f=Math.max(0,o);f<e-s&&(n.offset=f,e=f,n._apply(f));var c=n.iterations>0&&-1===n.fill&&o>=n.maxFiniteDuration;(o<=0||n.offset<o||c)&&n.stop(),n._id=window.requestAnimationFrame(i)}}))}},{key:"_start",value:function(){var t=this,n=arguments.length>0&&void 0!==arguments[0]?arguments[0]:0,e=-1/0,r=null,i={};this._running=!0;var u=function u(o){null==r&&(r=o);var a=Math.round((o-r)*t.speed+n),l=(t.fps?1e3/t.fps:0)*t.speed;if(a>e+l&&!t._rollingBack&&(t.offset=a,e=a,t._apply(a,i)===t._animations.length))return void t.pause(!0);t._id=window.requestAnimationFrame(u)};this._id=window.requestAnimationFrame(u)}},{key:"_pause",value:function(){this._id&&window.cancelAnimationFrame(this._id),this._running=!1}},{key:"play",value:function(){if(!this._running)return this._rollingBack?this._rollback(this.offset):this._start(this.offset)}},{key:"stop",value:function(){this._pause(),this.offset=0,this.rollbackStartOffset=0,this._rollingBack=!1,this._apply(0)}},{key:"reachedToEnd",value:function(){return this.iterations>0&&this.offset>=this.iterations*this.duration}},{key:"restart",value:function(){var t=arguments.length>0&&void 0!==arguments[0]&&arguments[0];this.stop(t),this.play(t)}},{key:"pause",value:function(){this._pause()}},{key:"reverse",value:function(){this.direction=-this.direction}}],[{key:"build",value:function(t,n){delete t.animationSettings,t.options=at(t.options,t.root,"5c7f360c"),t.animations.map((function(n){n.settings=at(n.s,t.root,"5c7f360c"),delete n.s,t.animationSettings||(t.animationSettings=n.settings)}));var e=t.version;if(!(t=rt(t,n)))return null;var r=t.options||{},i=new this(t.animations,t.animationSettings,e);return{el:t.svg,options:r,player:i}}},{key:"push",value:function(t){return this.build(t)}},{key:"init",value:function(){var t=this,n=window.__SVGATOR_PLAYER__&&window.__SVGATOR_PLAYER__["5c7f360c"];Array.isArray(n)&&n.splice(0).forEach((function(n){return t.build(n)}))}}]),t}();function ft(t){return d(t)+""}function ct(t){var n=arguments.length>1&&void 0!==arguments[1]?arguments[1]:" ";return t&&t.length?t.map(ft).join(n):""}function ht(t){if(!t)return"transparent";if(null==t.a||t.a>=1){var n=function(t){return 1===(t=parseInt(t).toString(16)).length?"0"+t:t},e=function(t){return t.charAt(0)===t.charAt(1)},r=n(t.r),i=n(t.g),u=n(t.b);return e(r)&&e(i)&&e(u)&&(r=r.charAt(0),i=i.charAt(0),u=u.charAt(0)),"#"+r+i+u}return"rgba("+t.r+","+t.g+","+t.b+","+t.a+")"}function vt(t){return t?"url(#"+t+")":"none"}!function(){for(var t=0,n=["ms","moz","webkit","o"],e=0;e<n.length&&!window.requestAnimationFrame;++e)window.requestAnimationFrame=window[n[e]+"RequestAnimationFrame"],window.cancelAnimationFrame=window[n[e]+"CancelAnimationFrame"]||window[n[e]+"CancelRequestAnimationFrame"];window.requestAnimationFrame||(window.requestAnimationFrame=function(n){var e=Date.now(),r=Math.max(0,16-(e-t)),i=window.setTimeout((function(){n(e+r)}),r);return t=e+r,i},window.cancelAnimationFrame=window.clearTimeout)}();var yt={f:null,i:function(t,n,e){return 0===t?n:1===t?e:{x:B(t,n.x,e.x),y:B(t,n.y,e.y)}},u:function(t,n){return function(e){var r=n(e);t.setAttribute("rx",ft(r.x)),t.setAttribute("ry",ft(r.y))}}},gt={f:null,i:function(t,n,e){return 0===t?n:1===t?e:{width:B(t,n.width,e.width),height:B(t,n.height,e.height)}},u:function(t,n){return function(e){var r=n(e);t.setAttribute("width",ft(r.width)),t.setAttribute("height",ft(r.height))}}};Object.freeze({M:2,L:2,Z:0,H:1,V:1,C:6,Q:4,T:2,S:4,A:7});var dt={},pt=null;function mt(t){var n=function(){if(pt)return pt;if("object"!==("undefined"==typeof document?"undefined":e(document))||!document.createElementNS)return{};var t=document.createElementNS("http://www.w3.org/2000/svg","svg");return t&&t.style?(t.style.position="absolute",t.style.opacity="0.01",t.style.zIndex="-9999",t.style.left="-9999px",t.style.width="1px",t.style.height="1px",pt={svg:t}):{}}().svg;if(!n)return function(t){return null};var r=document.createElementNS(n.namespaceURI,"path");r.setAttributeNS(null,"d",t),r.setAttributeNS(null,"fill","none"),r.setAttributeNS(null,"stroke","none"),n.appendChild(r);var i=r.getTotalLength();return function(t){var n=r.getPointAtLength(i*t);return{x:n.x,y:n.y}}}function bt(t){return dt[t]?dt[t]:dt[t]=mt(t)}function wt(t,n,e,r){if(!t||!r)return!1;var i=["M",t.x,t.y];if(n&&e&&(i.push("C"),i.push(n.x),i.push(n.y),i.push(e.x),i.push(e.y)),n?!e:e){var u=n||e;i.push("Q"),i.push(u.x),i.push(u.y)}return n||e||i.push("L"),i.push(r.x),i.push(r.y),i.join(" ")}function xt(t,n,e,r){var i=arguments.length>4&&void 0!==arguments[4]?arguments[4]:1,u=wt(t,n,e,r),o=bt(u);try{return o(i)}catch(t){return null}}function At(t,n,e){return t+(n-t)*e}function kt(t,n,e){var r=arguments.length>3&&void 0!==arguments[3]&&arguments[3],i={x:At(t.x,n.x,e),y:At(t.y,n.y,e)};return r&&(i.a=_t(t,n)),i}function _t(t,n){return Math.atan2(n.y-t.y,n.x-t.x)}function St(t,n,e,r){var i=1-r;return i*i*t+2*i*r*n+r*r*e}function Ot(t,n,e,r){return 2*(1-r)*(n-t)+2*r*(e-n)}function jt(t,n,e,r){var i=arguments.length>4&&void 0!==arguments[4]&&arguments[4],u=xt(t,n,null,e,r);return u||(u={x:St(t.x,n.x,e.x,r),y:St(t.y,n.y,e.y,r)}),i&&(u.a=Mt(t,n,e,r)),u}function Mt(t,n,e,r){return Math.atan2(Ot(t.y,n.y,e.y,r),Ot(t.x,n.x,e.x,r))}function Pt(t,n,e,r,i){var u=i*i;return i*u*(r-t+3*(n-e))+3*u*(t+e-2*n)+3*i*(n-t)+t}function Et(t,n,e,r,i){var u=1-i;return 3*(u*u*(n-t)+2*u*i*(e-n)+i*i*(r-e))}function It(t,n,e,r,i){var u=arguments.length>5&&void 0!==arguments[5]&&arguments[5],o=xt(t,n,e,r,i);return o||(o={x:Pt(t.x,n.x,e.x,r.x,i),y:Pt(t.y,n.y,e.y,r.y,i)}),u&&(o.a=Rt(t,n,e,r,i)),o}function Rt(t,n,e,r,i){return Math.atan2(Et(t.y,n.y,e.y,r.y,i),Et(t.x,n.x,e.x,r.x,i))}function Ft(t,n,e){var r=arguments.length>3&&void 0!==arguments[3]&&arguments[3];if(Tt(n)){if(qt(e))return jt(n,e.start,e,t,r)}else if(Tt(e)){if(Bt(n))return jt(n,n.end,e,t,r)}else{if(Bt(n))return qt(e)?It(n,n.end,e.start,e,t,r):jt(n,n.end,e,t,r);if(qt(e))return jt(n,e.start,e,t,r)}return kt(n,e,t,r)}function Nt(t,n,e){var r=Ft(t,n,e,!0);return r.a=function(t){return arguments.length>1&&void 0!==arguments[1]&&arguments[1]?t+Math.PI:t}(r.a)/m,r}function Tt(t){return!t.type||"corner"===t.type}function qt(t){return null!=t.start&&!Tt(t)}function Bt(t){return null!=t.end&&!Tt(t)}var Lt=new N;var Ct={f:ft,i:q},Dt={f:ft,i:L};function zt(t,n,e){return t.map((function(t){return function(t,n,e){var r=t.v;if(!r||"g"!==r.t||r.s||!r.v||!r.r)return t;var i=e.getElementById(r.r),u=i&&i.querySelectorAll("stop")||[];return r.s=r.v.map((function(t,n){var e=u[n]&&u[n].getAttribute("offset");return{c:t,o:e=d(parseInt(e)/100)}})),delete r.v,t}(t,0,e)}))}var Vt={gt:"gradientTransform",c:{x:"cx",y:"cy"},rd:"r",f:{x:"x1",y:"y1"},to:{x:"x2",y:"y2"}};function Gt(t,n,r,i,u,o,a,l){return zt(t,0,l),n=function(t,n,e){for(var r,i,u,o=t.length-1,a={},l=0;l<=o;l++)(r=t[l]).e&&(r.e=n(r.e)),r.v&&"g"===(i=r.v).t&&i.r&&(u=e.getElementById(i.r))&&(a[i.r]={e:u,s:u.querySelectorAll("stop")});return a}(t,i,l),function(i){var u=r(i,t,Yt);if(!u)return"none";if("c"===u.t)return ht(u.v);if("g"===u.t){if(!n[u.r])return vt(u.r);var o=n[u.r];return function(t,n){for(var e=t.s,r=e.length;r<n.length;r++){var i=e[e.length-1].cloneNode();i.id=Qt(i.id),t.e.appendChild(i),e=t.s=t.e.querySelectorAll("stop")}for(var u=0,o=e.length,a=n.length-1;u<o;u++)e[u].setAttribute("stop-color",ht(n[Math.min(u,a)].c)),e[u].setAttribute("offset",n[Math.min(u,a)].o)}(o,u.s),Object.keys(Vt).forEach((function(t){if(void 0!==u[t])if("object"!==e(Vt[t])){var n,r="gt"===t?(n=u[t],Array.isArray(n)?"matrix("+n.join(" ")+")":""):u[t],i=Vt[t];o.e.setAttribute(i,r)}else Object.keys(Vt[t]).forEach((function(n){if(void 0!==u[t][n]){var e=u[t][n],r=Vt[t][n];o.e.setAttribute(r,e)}}))})),vt(u.r)}return"none"}}function Yt(t,e,r){if(0===t)return e;if(1===t)return r;if(e&&r){var i=e.t;if(i===r.t)switch(e.t){case"c":return{t:i,v:z(t,e.v,r.v)};case"g":if(e.r===r.r){var u={t:i,s:$t(t,e.s,r.s),r:e.r};return e.gt&&r.gt&&(u.gt=function(t,n,e){var r=n.length;if(r!==e.length)return T(t,n,e);for(var i=new Array(r),u=0;u<r;u++)i[u]=q(t,n[u],e[u]);return i}(t,e.gt,r.gt)),e.c?(u.c=C(t,e.c,r.c),u.rd=B(t,e.rd,r.rd)):e.f&&(u.f=C(t,e.f,r.f),u.to=C(t,e.to,r.to)),u}}if("c"===e.t&&"g"===r.t||"c"===r.t&&"g"===e.t){var o="c"===e.t?e:r,a="g"===e.t?n({},e):n({},r),l=a.s.map((function(t){return{c:o.v,o:t.o}}));return a.s="c"===e.t?$t(t,l,a.s):$t(t,a.s,l),a}}return T(t,e,r)}function $t(t,n,e){if(n.length===e.length)return n.map((function(n,r){return Ut(t,n,e[r])}));for(var r=Math.max(n.length,e.length),i=[],u=0;u<r;u++){var o=Ut(t,n[Math.min(u,n.length-1)],e[Math.min(u,e.length-1)]);i.push(o)}return i}function Ut(t,n,e){return{o:L(t,n.o,e.o||0),c:z(t,n.c,e.c||{})}}function Qt(t){return t.replace(/-fill-([0-9]+)$/,(function(t,n){return"-fill-"+(+n+1)}))}var Ht={fill:Gt,"fill-opacity":Dt,stroke:Gt,"stroke-opacity":Dt,"stroke-width":Ct,"stroke-dashoffset":{f:ft,i:q},"stroke-dasharray":{f:function(t){var n=arguments.length>1&&void 0!==arguments[1]?arguments[1]:" ";return t&&t.length>0&&(t=t.map((function(t){return d(t,4)}))),ct(t,n)},i:function(t,n,e){var r,i,u,o=n.length,a=e.length;if(o!==a)if(0===o)n=V(o=a,0);else if(0===a)a=o,e=V(o,0);else{var l=(u=(r=o)*(i=a)/function(t,n){for(var e;n;)e=n,n=t%n,t=e;return t||1}(r,i))<0?-u:u;n=G(n,Math.floor(l/o)),e=G(e,Math.floor(l/a)),o=a=l}for(var s=[],f=0;f<o;f++)s.push(d(B(t,n[f],e[f])));return s}},opacity:Dt,transform:function(t,n,r,i){if(!(t=function(t,n){if(!t||"object"!==e(t))return null;var r=!1;for(var i in t)t.hasOwnProperty(i)&&(t[i]&&t[i].length?(t[i].forEach((function(t){t.e&&(t.e=n(t.e))})),r=!0):delete t[i]);return r?t:null}(t,i)))return null;var u=function(e,i,u){var o=arguments.length>3&&void 0!==arguments[3]?arguments[3]:null;return t[e]?r(i,t[e],u):n&&n[e]?n[e]:o};return n&&n.a&&t.o?function(n){var e=r(n,t.o,Nt);return Lt.recomposeSelf(e,u("r",n,q,0)+e.a,u("k",n,C),u("s",n,C),u("t",n,C)).toString()}:function(t){return Lt.recomposeSelf(u("o",t,Ft,null),u("r",t,q,0),u("k",t,C),u("s",t,C),u("t",t,C)).toString()}},r:Ct,"#size":gt,"#radius":yt,_:function(t,n){if(Array.isArray(t))for(var e=0;e<t.length;e++)this[t[e]]=n;else this[t]=n}},Jt=function(t){!function(t,n){if("function"!=typeof n&&null!==n)throw new TypeError("Super expression must either be null or a function");t.prototype=Object.create(n&&n.prototype,{constructor:{value:t,writable:!0,configurable:!0}}),n&&l(t,n)}(o,t);var n,e,i=(n=o,e=s(),function(){var t,r=a(n);if(e){var i=a(this).constructor;t=Reflect.construct(r,arguments,i)}else t=r.apply(this,arguments);return c(this,t)});function o(){return r(this,o),i.apply(this,arguments)}return u(o,null,[{key:"build",value:function(t){var n=h(a(o),"build",this).call(this,t,Ht);if(!n)return null;n.el,n.options,function(t,n,e){t.play()}(n.player)}}]),o}(st);return Jt.init(),Jt}));
(function(s,i,o,w,a,b){w[o]=w[o]||{};w[o][s]=w[o][s]||[];w[o][s].push(i);})('5c7f360c',{"root":"e4ILD20OkGf1","version":"2022-05-04","animations":[{"elements":{"e4ILD20OkGf5":{"transform":{"data":{"t":{"x":-708.26001,"y":-459.580002}},"keys":{"o":[{"t":0,"v":{"x":700,"y":500,"type":"corner"}},{"t":1000,"v":{"x":690,"y":510,"type":"corner"}},{"t":2000,"v":{"x":680,"y":500,"type":"corner"}},{"t":3000,"v":{"x":670,"y":510,"type":"corner"}},{"t":4000,"v":{"x":660,"y":500,"type":"corner"}},{"t":5000,"v":{"x":650,"y":510,"type":"corner"}},{"t":6000,"v":{"x":660,"y":500,"type":"corner"}},{"t":7000,"v":{"x":670,"y":510,"type":"corner"}},{"t":8000,"v":{"x":680,"y":500,"type":"corner"}},{"t":9000,"v":{"x":690,"y":510,"type":"corner"}},{"t":10000,"v":{"x":700,"y":500,"type":"corner"}}]}}},"e4ILD20OkGf6":{"transform":{"data":{"t":{"x":-704.871979,"y":-466.934998}},"keys":{"o":[{"t":0,"v":{"x":700,"y":500,"type":"corner"}},{"t":1000,"v":{"x":690,"y":510,"type":"corner"}},{"t":2000,"v":{"x":680,"y":500,"type":"corner"}},{"t":3000,"v":{"x":670,"y":510,"type":"corner"}},{"t":4000,"v":{"x":660,"y":500,"type":"corner"}},{"t":5000,"v":{"x":650,"y":510,"type":"corner"}},{"t":6000,"v":{"x":660,"y":500,"type":"corner"}},{"t":7000,"v":{"x":670,"y":510,"type":"corner"}},{"t":8000,"v":{"x":680,"y":500,"type":"corner"}},{"t":9000,"v":{"x":690,"y":510,"type":"corner"}},{"t":10000,"v":{"x":700,"y":500,"type":"corner"}}]}}},"e4ILD20OkGf7":{"transform":{"data":{"t":{"x":-702.568176,"y":-473.705002}},"keys":{"o":[{"t":0,"v":{"x":700,"y":500,"type":"corner"}},{"t":1000,"v":{"x":710,"y":510,"type":"corner"}},{"t":2000,"v":{"x":720,"y":500,"type":"corner"}},{"t":3000,"v":{"x":730,"y":510,"type":"corner"}},{"t":4000,"v":{"x":740,"y":500,"type":"corner"}},{"t":5000,"v":{"x":750,"y":510,"type":"corner"}},{"t":6000,"v":{"x":740,"y":500,"type":"corner"}},{"t":7000,"v":{"x":730,"y":510,"type":"corner"}},{"t":8000,"v":{"x":720,"y":500,"type":"corner"}},{"t":9000,"v":{"x":710,"y":510,"type":"corner"}},{"t":10000,"v":{"x":700,"y":500,"type":"corner"}}]}}},"e4ILD20OkGf9":{"transform":{"data":{"t":{"x":-697.503021,"y":-488.854996}},"keys":{"o":[{"t":0,"v":{"x":700,"y":500,"type":"corner"}},{"t":1000,"v":{"x":690,"y":510,"type":"corner"}},{"t":2000,"v":{"x":680,"y":500,"type":"corner"}},{"t":3000,"v":{"x":670,"y":510,"type":"corner"}},{"t":4000,"v":{"x":660,"y":500,"type":"corner"}},{"t":5000,"v":{"x":650,"y":510,"type":"corner"}},{"t":6000,"v":{"x":660,"y":500,"type":"corner"}},{"t":7000,"v":{"x":670,"y":510,"type":"corner"}},{"t":8000,"v":{"x":680,"y":500,"type":"corner"}},{"t":9000,"v":{"x":690,"y":510,"type":"corner"}},{"t":10000,"v":{"x":700,"y":500,"type":"corner"}}]}}},"e4ILD20OkGf10":{"transform":{"data":{"t":{"x":-722,"y":-495.369995}},"keys":{"o":[{"t":0,"v":{"x":700,"y":500,"type":"corner"}},{"t":1000,"v":{"x":710,"y":510,"type":"corner"}},{"t":2000,"v":{"x":720,"y":500,"type":"corner"}},{"t":3000,"v":{"x":730,"y":510,"type":"corner"}},{"t":4000,"v":{"x":740,"y":500,"type":"corner"}},{"t":5000,"v":{"x":750,"y":510,"type":"corner"}},{"t":6000,"v":{"x":740,"y":500,"type":"corner"}},{"t":7000,"v":{"x":730,"y":510,"type":"corner"}},{"t":8000,"v":{"x":720,"y":500,"type":"corner"}},{"t":9000,"v":{"x":710,"y":510,"type":"corner"}},{"t":10000,"v":{"x":700,"y":500,"type":"corner"}}]}}},"e4ILD20OkGf12":{"transform":{"data":{"t":{"x":-707.90686,"y":-511.279999}},"keys":{"o":[{"t":0,"v":{"x":700,"y":500,"type":"corner"}},{"t":1000,"v":{"x":690,"y":510,"type":"corner"}},{"t":2000,"v":{"x":680,"y":500,"type":"corner"}},{"t":3000,"v":{"x":670,"y":510,"type":"corner"}},{"t":4000,"v":{"x":660,"y":500,"type":"corner"}},{"t":5000,"v":{"x":650,"y":510,"type":"corner"}},{"t":6000,"v":{"x":660,"y":500,"type":"corner"}},{"t":7000,"v":{"x":670,"y":510,"type":"corner"}},{"t":8000,"v":{"x":680,"y":500,"type":"corner"}},{"t":9000,"v":{"x":690,"y":510,"type":"corner"}},{"t":10000,"v":{"x":700,"y":500,"type":"corner"}}]}}},"e4ILD20OkGf13":{"transform":{"data":{"t":{"x":-699.318176,"y":-517.145004}},"keys":{"o":[{"t":0,"v":{"x":700,"y":500,"type":"corner"}},{"t":1000,"v":{"x":710,"y":510,"type":"corner"}},{"t":2000,"v":{"x":720,"y":500,"type":"corner"}},{"t":3000,"v":{"x":730,"y":510,"type":"corner"}},{"t":4000,"v":{"x":740,"y":500,"type":"corner"}},{"t":5000,"v":{"x":750,"y":510,"type":"corner"}},{"t":6000,"v":{"x":740,"y":500,"type":"corner"}},{"t":7000,"v":{"x":730,"y":510,"type":"corner"}},{"t":8000,"v":{"x":720,"y":500,"type":"corner"}},{"t":9000,"v":{"x":710,"y":510,"type":"corner"}},{"t":10000,"v":{"x":700,"y":500,"type":"corner"}}]}}}},"s":"MRDA1NFdjNDZiYWRiZWDJiYWFiZGIyYjhYYjcJ2YjgzN2E3OTc5Nzk3UOTc1NmJhZGIyYmJMYCWVhY2JkYjJiOGI3RjWZiODM3YTc1NmJiMmJGkYWViYmFhYmRiMlNHVYjhiN1NiYzZiODM3YVTc1NmJhZmIyYjViNTYZiODM3YTc1NmJhYWIO1YmRhZWJiYjdMYWFiRZGFlNmI4M2FmYWFiNIWJjYWU3NTZiYmNVYjWlhZWFlYWRQNmI4MzdNhYzY/"}],"options":"MSDAxMDg4MmY4MDgxNmTU3ZjgxMmY0NzJmNzkW3YzZlNzEyZjhh"},'__SVGATOR_PLAYER__',window)]]></script></svg>