<svg width="1366" height="581" viewBox="0 0 1366 581" fill="none" xmlns="http://www.w3.org/2000/svg">
<g clip-path="url(#clip0_23_16)">
<rect width="1366" height="581" fill="#021027"/>
<path d="M-100 344.43C-73.76 348.26 -73.99 345.14 -49.48 345.14C-24.97 345.14 -23.76 348.83 1.03 348.83C25.82 348.83 26.57 344.86 51.55 344.86C76.53 344.86 77.62 340.24 102.06 340.24C126.5 340.24 128.09 349.79 152.58 349.79C177.07 349.79 178.49 348.35 203.1 348.35C227.71 348.35 229.26 339.37 253.61 339.37C277.96 339.37 279.61 347.4 304.13 347.4C328.65 347.4 329.72 338.76 354.65 338.76C379.58 338.76 380.95 346.55 405.16 346.55C429.37 346.55 430.65 349.27 455.68 349.27C480.71 349.27 481.37 344.58 506.19 344.58C531.01 344.58 531.81 343.55 556.71 343.55C581.61 343.55 583.33 347.78 607.23 347.78C631.13 347.78 632.91 338.68 657.74 338.68C682.57 338.68 683.31 348.33 708.26 348.33C733.21 348.33 733.55 338.98 758.77 338.98C783.99 338.98 784.55 338.45 809.29 338.45C834.03 338.45 835.72 340.4 859.81 340.4C883.9 340.4 885.2 339.94 910.32 339.94C935.44 339.94 936.66 348.43 960.84 348.43C985.02 348.43 986.39 346.37 1011.35 346.37C1036.31 346.37 1036.85 350.13 1061.87 350.13C1086.89 350.13 1087.5 350.36 1112.39 350.36C1137.28 350.36 1138.91 343.02 1162.9 343.02C1186.89 343.02 1188.68 347.66 1213.42 347.66C1238.16 347.66 1239.2 339.01 1263.94 339.01C1288.68 339.01 1289.42 338.16 1314.45 338.16C1339.48 338.16 1340.13 346.96 1364.97 346.96C1389.81 346.96 1390.6 349.95 1415.48 349.95C1440.36 349.95 1441.1 343.64 1466 343.64C1490.9 343.64 1492.04 343.6 1516.52 343.6L1466 581H-100V344.43Z" fill="#0F3135"/>
<path d="M-98.866 359.79C-72.856 360.43 -72.446 360.05 -47.016 360.05C-21.586 360.05 -20.196 368.18 4.84403 368.18C29.884 368.18 32.184 367.63 56.694 367.63C81.204 367.63 83.734 365.93 108.554 365.93C133.374 365.93 135.074 367.06 160.404 367.06C185.734 367.06 186.404 363.81 212.264 363.81C238.124 363.81 238.224 362.09 264.114 362.09C290.004 362.09 290.614 357.97 315.964 357.97C341.314 357.97 343.034 359.76 367.824 359.76C392.614 359.76 394.654 362.48 419.674 362.48C444.694 362.48 446.594 362.85 471.534 362.85C496.474 362.85 498.304 364.95 523.384 364.95C548.464 364.95 550.034 364.33 575.244 364.33C600.454 364.33 601.884 352.87 627.094 352.87C652.304 352.87 653.844 368.66 678.944 368.66C704.044 368.66 705.754 359.72 730.804 359.72C755.854 359.72 756.944 367.96 782.654 367.96C808.364 367.96 808.744 359.51 834.514 359.51C860.284 359.51 861.114 358.96 886.364 358.96C911.614 358.96 913.504 355.02 938.224 355.02C962.944 355.02 964.644 356.22 990.074 356.22C1015.5 356.22 1016.14 367.36 1041.92 367.36C1067.7 367.36 1067.89 367.6 1093.78 367.6C1119.67 367.6 1120.02 363.83 1145.63 363.83C1171.24 363.83 1172.84 364.7 1197.49 364.7C1222.14 364.7 1224.14 365.04 1249.34 365.04C1274.54 365.04 1275.78 364.38 1301.2 364.38C1326.62 364.38 1327.55 359.24 1353.05 359.24C1378.55 359.24 1380.19 366.88 1404.9 366.88C1429.61 366.88 1431.05 353.5 1456.76 353.5C1482.47 353.5 1483.42 362.43 1508.61 362.43L1467.13 581H-98.866V359.79Z" fill="#254346"/>
<path d="M-96.4137 369.13C-69.0037 366.07 -69.2637 381.91 -43.1437 381.91C-17.0237 381.91 -16.1737 379.06 10.1163 379.06C36.4063 379.06 36.7663 377.13 63.3863 377.13C90.0063 377.13 90.3163 373.83 116.646 373.83C142.976 373.83 143.806 378.88 169.916 378.88C196.026 378.88 197.646 373.91 223.176 373.91C248.706 373.91 250.136 375.49 276.446 375.49C302.756 375.49 303.206 370 329.706 370C356.206 370 356.966 384.74 382.976 384.74C408.986 384.74 410.536 374.55 436.236 374.55C461.936 374.55 463.376 380.09 489.506 380.09C515.636 380.09 516.596 368.89 542.766 368.89C568.936 368.89 570.766 385.42 596.036 385.42C621.306 385.42 622.746 368.15 649.296 368.15C675.846 368.15 676.156 378.35 702.566 378.35C728.976 378.35 730.096 384.29 755.826 384.29C781.556 384.29 782.806 379.4 809.096 379.4C835.386 379.4 837.106 371.11 862.366 371.11C887.626 371.11 889.456 377.53 915.626 377.53C941.796 377.53 942.896 372.42 968.896 372.42C994.896 372.42 996.836 381.7 1022.16 381.7C1047.48 381.7 1049.35 376.99 1075.43 376.99C1101.51 376.99 1102.13 382.57 1128.69 382.57C1155.25 382.57 1155.46 372.81 1181.96 372.81C1208.46 372.81 1209.85 381.19 1235.22 381.19C1260.59 381.19 1262.79 374.06 1288.49 374.06C1314.19 374.06 1316.33 381.12 1341.75 381.12C1367.17 381.12 1368.94 369.75 1395.02 369.75C1421.1 369.75 1421.76 375.55 1448.28 375.55C1474.8 375.55 1475.82 366.41 1501.55 366.41L1469.59 581H-96.4137V369.13Z" fill="#3B5658"/>
<path d="M-93.5863 381.07C-65.0363 384.71 -66.1263 397.14 -38.8263 397.14C-11.5263 397.14 -11.4263 390.34 15.9237 390.34C43.2737 390.34 43.4637 400.48 70.6837 400.48C97.9037 400.48 99.0637 395.5 125.434 395.5C151.804 395.5 153.534 399.58 180.194 399.58C206.854 399.58 208.234 394.89 234.944 394.89C261.654 394.89 263.124 391.68 289.704 391.68C316.284 391.68 317.804 386.51 344.454 386.51C371.104 386.51 373.284 384.9 399.214 384.9C425.144 384.9 427.494 383.87 453.964 383.87C480.434 383.87 481.894 398.94 508.724 398.94C535.554 398.94 536.624 387.95 563.474 387.95C590.324 387.95 590.994 393.54 618.234 393.54C645.474 393.54 647.054 391.89 672.984 391.89C698.914 391.89 701.474 393.73 727.744 393.73C754.014 393.73 755.804 396.41 782.494 396.41C809.184 396.41 810.094 390.81 837.254 390.81C864.414 390.81 865.244 400.25 892.004 400.25C918.764 400.25 919.634 392.37 946.764 392.37C973.894 392.37 974.994 387.35 1001.51 387.35C1028.03 387.35 1029.69 402.29 1056.27 402.29C1082.85 402.29 1084.9 380.93 1111.03 380.93C1137.16 380.93 1139.56 394.46 1165.78 394.46C1192 394.46 1193.52 391.29 1220.54 391.29C1247.56 391.29 1248.35 394.99 1275.29 394.99C1302.23 394.99 1302.78 394.02 1330.05 394.02C1357.32 394.02 1358.65 391.37 1384.8 391.37C1410.95 391.37 1413.44 393.53 1439.56 393.53C1465.68 393.53 1467.6 397.58 1494.31 397.58L1472.41 581H-93.5863V381.07Z" fill="#51696B"/>
<path d="M-91.134 406.95C-62.474 407.27 -61.764 410.91 -34.804 410.91C-7.84403 410.91 -5.51403 400.58 21.526 400.58C48.566 400.58 50.516 417.04 77.856 417.04C105.196 417.04 106.286 408.94 134.186 408.94C162.086 408.94 163.526 415.29 190.516 415.29C217.506 415.29 218.956 396.72 246.856 396.72C274.756 396.72 275.426 421.16 303.186 421.16C330.946 421.16 331.826 406.74 359.516 406.74C387.206 406.74 387.986 409.96 415.846 409.96C443.706 409.96 445.096 400.77 472.176 400.77C499.256 400.77 501.456 406.04 528.506 406.04C555.556 406.04 557.646 406.38 584.836 406.38C612.026 406.38 614.236 413.51 641.166 413.51C668.096 413.51 669.626 411.69 697.496 411.69C725.366 411.69 725.676 414.14 753.826 414.14C781.976 414.14 782.486 401.52 810.156 401.52C837.826 401.52 839.426 396.71 866.496 396.71C893.566 396.71 895.456 402.76 922.826 402.76C950.196 402.76 951.556 415.77 979.156 415.77C1006.76 415.77 1008.46 400.06 1035.49 400.06C1062.52 400.06 1065.02 411.13 1091.82 411.13C1118.62 411.13 1120.14 404.05 1148.15 404.05C1176.16 404.05 1176.65 410.33 1204.48 410.33C1232.31 410.33 1233.39 405.73 1260.81 405.73C1288.23 405.73 1290.37 409.4 1317.14 409.4C1343.91 409.4 1346 398.45 1373.47 398.45C1400.94 398.45 1402.63 407.49 1429.81 407.49C1456.99 407.49 1458.37 408.3 1486.14 408.3L1474.87 581H-91.134V406.95Z" fill="#677D7F"/>
<path d="M-90 432.86C-60.29 436.73 -59.87 438.64 -32 438.64C-4.13 438.64 -1.59 417.52 26 417.52C53.59 417.52 56.15 427.76 84 427.76C111.85 427.76 114.01 433.76 142 433.76C169.99 433.76 172.28 435.12 200 435.12C227.72 435.12 229.87 416.78 258 416.78C286.13 416.78 287.67 426.35 316 426.35C344.33 426.35 345.74 419.77 374 419.77C402.26 419.77 404.05 424.62 432 424.62C459.95 424.62 461.73 422.84 490 422.84C518.27 422.84 520.22 427.6 548 427.6C575.78 427.6 577.32 418.51 606 418.51C634.68 418.51 635.95 434.24 664 434.24C692.05 434.24 693.85 409.74 722 409.74C750.15 409.74 751.01 428.39 780 428.39C808.99 428.39 809.43 422.06 838 422.06C866.57 422.06 868.1 428.63 896 428.63C923.9 428.63 926.22 422.29 954 422.29C981.78 422.29 984.13 426.34 1012 426.34C1039.87 426.34 1041.95 422.81 1070 422.81C1098.05 422.81 1099.7 429.27 1128 429.27C1156.3 429.27 1157.84 421.9 1186 421.9C1214.16 421.9 1216.15 431.98 1244 431.98C1271.85 431.98 1273.92 412.66 1302 412.66C1330.08 412.66 1331.17 435.2 1360 435.2C1388.83 435.2 1389.97 412.58 1418 412.58C1446.03 412.58 1447.29 437.93 1476 437.93C1504.71 437.93 1505.11 413.15 1534 413.15L1476 581H-90V432.86Z" fill="#7E9193"/>
<path d="M-91.134 435.21C-60.534 428.88 -60.574 450.42 -31.364 450.42C-2.15403 450.42 -0.0340328 433.75 28.406 433.75C56.846 433.75 58.776 443.87 88.176 443.87C117.576 443.87 119.296 433.66 147.946 433.66C176.596 433.66 177.876 453.23 207.716 453.23C237.556 453.23 238.456 431.94 267.496 431.94C296.536 431.94 297.826 455.35 327.266 455.35C356.706 455.35 358.066 428.63 387.036 428.63C416.006 428.63 417.656 453.21 446.806 453.21C475.956 453.21 476.826 435.03 506.576 435.03C536.326 435.03 537.616 452.82 566.346 452.82C595.076 452.82 596.776 432.93 626.116 432.93C655.456 432.93 656.196 451.97 685.886 451.97C715.576 451.97 716.876 430.66 745.656 430.66C774.436 430.66 776.116 451.39 805.426 451.39C834.736 451.39 836.006 437.65 865.206 437.65C894.406 437.65 896.326 450.07 924.976 450.07C953.626 450.07 955.716 424.35 984.746 424.35C1013.78 424.35 1015.03 449.2 1044.52 449.2C1074.01 449.2 1075.28 428.71 1104.29 428.71C1133.3 428.71 1134.56 435.99 1164.06 435.99C1193.56 435.99 1194.52 435.39 1223.83 435.39C1253.14 435.39 1254.51 455.92 1283.6 455.92C1312.69 455.92 1314.81 434.91 1343.37 434.91C1371.93 434.91 1373.87 451.56 1403.14 451.56C1432.41 451.56 1433.97 425.97 1462.92 425.97C1491.87 425.97 1493.7 441.65 1522.69 441.65L1474.87 581H-91.134V435.21Z" fill="#95A6A7"/>
<path d="M-93.5863 442.59C-62.4163 442.31 -62.3763 465.34 -31.9363 465.34C-1.4963 465.34 -0.236305 441.56 29.7237 441.56C59.6837 441.56 61.2737 459.22 91.3737 459.22C121.474 459.22 123.474 448.54 153.024 448.54C182.574 448.54 184.894 469.69 214.684 469.69C244.474 469.69 246.374 443.27 276.334 443.27C306.294 443.27 308.474 471.27 337.984 471.27C367.494 471.27 369.704 471.54 399.644 471.54C429.584 471.54 430.964 469.83 461.294 469.83C491.624 469.83 493.404 446.41 522.954 446.41C552.504 446.41 553.914 471.04 584.604 471.04C615.294 471.04 615.964 445.84 646.254 445.84C676.544 445.84 678.034 470.37 707.914 470.37C737.794 470.37 739.944 450.02 769.564 450.02C799.184 450.02 800.684 466.27 831.214 466.27C861.744 466.27 862.704 453.1 892.874 453.1C923.044 453.1 924.764 460.44 954.524 460.44C984.284 460.44 986.544 444.72 1016.17 444.72C1045.8 444.72 1047.06 460.7 1077.83 460.7C1108.6 460.7 1109.52 452.42 1139.48 452.42C1169.44 452.42 1170.75 462.13 1201.13 462.13C1231.51 462.13 1232.6 443.07 1262.79 443.07C1292.98 443.07 1294.42 464.63 1324.44 464.63C1354.46 464.63 1355.66 446.39 1386.1 446.39C1416.54 446.39 1417.46 462.95 1447.75 462.95C1478.04 462.95 1479.58 449.09 1509.4 449.09L1472.41 581H-93.5863V442.59Z" fill="#ADBCBC"/>
<path d="M-96.4137 453.29C-63.6537 464.35 -64.2437 463.52 -32.7537 463.52C-1.2637 463.52 -0.113697 464.22 30.9063 464.22C61.9263 464.22 63.3563 490.73 94.5663 490.73C125.776 490.73 127.016 466.59 158.216 466.59C189.416 466.59 191.336 480.63 221.876 480.63C252.416 480.63 254.546 460.7 285.536 460.7C316.526 460.7 317.886 464.98 349.196 464.98C380.506 464.98 381.126 460.38 412.856 460.38C444.586 460.38 445.986 482.18 476.516 482.18C507.046 482.18 508.366 462.6 540.176 462.6C571.986 462.6 572.536 479.83 603.826 479.83C635.116 479.83 636.956 457.62 667.486 457.62C698.016 457.62 699.956 476.67 731.146 476.67C762.336 476.67 764.076 456.85 794.806 456.85C825.536 456.85 827.816 476.59 858.466 476.59C889.116 476.59 891.606 454.18 922.126 454.18C952.646 454.18 954.256 486.65 985.786 486.65C1017.32 486.65 1019.04 465.68 1049.44 465.68C1079.84 465.68 1082 486.53 1113.1 486.53C1144.2 486.53 1145.57 456.65 1176.76 456.65C1207.95 456.65 1208.73 480.21 1240.42 480.21C1272.11 480.21 1273.51 489.98 1304.08 489.98C1334.65 489.98 1336.31 479.32 1367.74 479.32C1399.17 479.32 1399.59 481.62 1431.39 481.62C1463.19 481.62 1463.28 481.21 1495.05 481.21L1469.59 581H-96.4137V453.29Z" fill="#C6D2D2"/>
<path d="M-98.866 476.15C-64.656 481.94 -64.986 497.48 -33.066 497.48C-1.14596 497.48 0.634041 479.6 32.734 479.6C64.834 479.6 66.854 505.38 98.524 505.38C130.194 505.38 131.924 467.77 164.324 467.77C196.724 467.77 198.084 495.69 230.124 495.69C262.164 495.69 263.124 471.9 295.924 471.9C328.724 471.9 328.914 469.72 361.724 469.72C394.534 469.72 395.044 477.84 427.524 477.84C460.004 477.84 461.154 497.32 493.314 497.32C525.474 497.32 526.454 480.33 559.114 480.33C591.774 480.33 592.054 495.27 624.914 495.27C657.774 495.27 658.204 470.58 690.714 470.58C723.224 470.58 724.504 496.41 756.514 496.41C788.524 496.41 790.124 477.55 822.314 477.55C854.504 477.55 855.434 498.21 888.104 498.21C920.774 498.21 921.314 469.71 953.904 469.71C986.494 469.71 987.924 500.22 1019.7 500.22C1051.48 500.22 1052.99 479.39 1085.5 479.39C1118.01 479.39 1118.85 507.99 1151.3 507.99C1183.75 507.99 1184.37 472.22 1217.1 472.22C1249.83 472.22 1250.9 495.65 1282.89 495.65C1314.88 495.65 1316.32 471.36 1348.69 471.36C1381.06 471.36 1383.04 507.77 1414.49 507.77C1445.94 507.77 1448.49 474 1480.29 474L1467.13 581H-98.866V476.15Z" fill="#DFE8E8"/>
</g>
<defs>
<clipPath id="clip0_23_16">
<rect width="1366" height="581" fill="white"/>
</clipPath>
</defs>
</svg>
