<svg width="20" height="20" viewBox="0 0 20 20" fill="none" xmlns="http://www.w3.org/2000/svg">
<path d="M10 7C11.6569 7 13 8.34314 13 10C13 11.6569 11.6569 13 10 13C8.34315 13 7 11.6569 7 10C7 8.34314 8.34315 7 10 7Z" fill="#47E29F"/>
<path fill-rule="evenodd" clip-rule="evenodd" d="M20 10C20 15.5229 15.5229 20 10 20C4.47715 20 0 15.5229 0 10C0 4.47714 4.47715 0 10 0C15.5229 0 20 4.47714 20 10ZM17 10C17 13.866 13.866 17 10 17C6.13401 17 3 13.866 3 10C3 6.134 6.13401 3 10 3C13.866 3 17 6.134 17 10Z" fill="#47E29F"/>
</svg>
