<svg width="1366" height="215" viewBox="0 0 1366 215" fill="none" xmlns="http://www.w3.org/2000/svg">
<path d="M-96.4137 3.13004C-69.0037 0.0700355 -69.2637 15.91 -43.1437 15.91C-17.0237 15.91 -16.1737 13.06 10.1163 13.06C36.4063 13.06 36.7663 11.13 63.3863 11.13C90.0063 11.13 90.3163 7.83002 116.646 7.83002C142.976 7.83002 143.806 12.88 169.916 12.88C196.026 12.88 197.646 7.91003 223.176 7.91003C248.706 7.91003 250.136 9.49002 276.446 9.49002C302.756 9.49002 303.206 4.00003 329.706 4.00003C356.206 4.00003 356.966 18.74 382.976 18.74C408.986 18.74 410.536 8.55002 436.236 8.55002C461.936 8.55002 463.376 14.09 489.506 14.09C515.636 14.09 516.596 2.89005 542.766 2.89005C568.936 2.89005 570.766 19.42 596.036 19.42C621.306 19.42 622.746 2.15002 649.296 2.15002C675.846 2.15002 676.156 12.35 702.566 12.35C728.976 12.35 730.096 18.29 755.826 18.29C781.556 18.29 782.806 13.4 809.096 13.4C835.386 13.4 837.106 5.11002 862.366 5.11002C887.626 5.11002 889.456 11.53 915.626 11.53C941.796 11.53 942.896 6.42004 968.896 6.42004C994.896 6.42004 996.836 15.7 1022.16 15.7C1047.48 15.7 1049.35 10.99 1075.43 10.99C1101.51 10.99 1102.13 16.57 1128.69 16.57C1155.25 16.57 1155.46 6.81003 1181.96 6.81003C1208.46 6.81003 1209.85 15.19 1235.22 15.19C1260.59 15.19 1262.79 8.06003 1288.49 8.06003C1314.19 8.06003 1316.33 15.12 1341.75 15.12C1367.17 15.12 1368.94 3.75003 1395.02 3.75003C1421.1 3.75003 1421.76 9.55002 1448.28 9.55002C1474.8 9.55002 1475.82 0.410034 1501.55 0.410034L1469.59 215H-96.4137V3.13004Z" fill="#3B5658"/>
</svg>
