<svg width="1366" height="185" viewBox="0 0 1366 185" fill="none" xmlns="http://www.w3.org/2000/svg">
<path d="M-91.134 10.95C-62.474 11.27 -61.764 14.91 -34.804 14.91C-7.84403 14.91 -5.51403 4.58002 21.526 4.58002C48.566 4.58002 50.516 21.04 77.856 21.04C105.196 21.04 106.286 12.94 134.186 12.94C162.086 12.94 163.526 19.29 190.516 19.29C217.506 19.29 218.956 0.720032 246.856 0.720032C274.756 0.720032 275.426 25.16 303.186 25.16C330.946 25.16 331.826 10.74 359.516 10.74C387.206 10.74 387.986 13.96 415.846 13.96C443.706 13.96 445.096 4.77002 472.176 4.77002C499.256 4.77002 501.456 10.04 528.506 10.04C555.556 10.04 557.646 10.38 584.836 10.38C612.026 10.38 614.236 17.51 641.166 17.51C668.096 17.51 669.626 15.69 697.496 15.69C725.366 15.69 725.676 18.14 753.826 18.14C781.976 18.14 782.486 5.52002 810.156 5.52002C837.826 5.52002 839.426 0.710022 866.496 0.710022C893.566 0.710022 895.456 6.76004 922.826 6.76004C950.196 6.76004 951.556 19.77 979.156 19.77C1006.76 19.77 1008.46 4.06003 1035.49 4.06003C1062.52 4.06003 1065.02 15.13 1091.82 15.13C1118.62 15.13 1120.14 8.05002 1148.15 8.05002C1176.16 8.05002 1176.65 14.33 1204.48 14.33C1232.31 14.33 1233.39 9.73004 1260.81 9.73004C1288.23 9.73004 1290.37 13.4 1317.14 13.4C1343.91 13.4 1346 2.45004 1373.47 2.45004C1400.94 2.45004 1402.63 11.49 1429.81 11.49C1456.99 11.49 1458.37 12.3 1486.14 12.3L1474.87 185H-91.134V10.95Z" fill="#677D7F"/>
</svg>
