<svg width="1366" height="172" viewBox="0 0 1366 172" fill="none" xmlns="http://www.w3.org/2000/svg">
<path d="M-90 23.86C-60.29 27.73 -59.87 29.64 -32 29.64C-4.13 29.64 -1.59 8.51999 26 8.51999C53.59 8.51999 56.15 18.76 84 18.76C111.85 18.76 114.01 24.76 142 24.76C169.99 24.76 172.28 26.12 200 26.12C227.72 26.12 229.87 7.78 258 7.78C286.13 7.78 287.67 17.35 316 17.35C344.33 17.35 345.74 10.77 374 10.77C402.26 10.77 404.05 15.62 432 15.62C459.95 15.62 461.73 13.84 490 13.84C518.27 13.84 520.22 18.6 548 18.6C575.78 18.6 577.32 9.51001 606 9.51001C634.68 9.51001 635.95 25.24 664 25.24C692.05 25.24 693.85 0.73999 722 0.73999C750.15 0.73999 751.01 19.39 780 19.39C808.99 19.39 809.43 13.06 838 13.06C866.57 13.06 868.1 19.63 896 19.63C923.9 19.63 926.22 13.29 954 13.29C981.78 13.29 984.13 17.34 1012 17.34C1039.87 17.34 1041.95 13.81 1070 13.81C1098.05 13.81 1099.7 20.27 1128 20.27C1156.3 20.27 1157.84 12.9 1186 12.9C1214.16 12.9 1216.15 22.98 1244 22.98C1271.85 22.98 1273.92 3.66 1302 3.66C1330.08 3.66 1331.17 26.2 1360 26.2C1388.83 26.2 1389.97 3.57999 1418 3.57999C1446.03 3.57999 1447.29 28.93 1476 28.93C1504.71 28.93 1505.11 4.14999 1534 4.14999L1476 172H-90V23.86Z" fill="#7E9193"/>
</svg>
