<svg width="1366" height="140" viewBox="0 0 1366 140" fill="none" xmlns="http://www.w3.org/2000/svg">
<path d="M-93.5863 1.59006C-62.4163 1.31006 -62.3763 24.3401 -31.9363 24.3401C-1.4963 24.3401 -0.236305 0.560059 29.7237 0.560059C59.6837 0.560059 61.2737 18.2201 91.3737 18.2201C121.474 18.2201 123.474 7.54007 153.024 7.54007C182.574 7.54007 184.894 28.6901 214.684 28.6901C244.474 28.6901 246.374 2.27005 276.334 2.27005C306.294 2.27005 308.474 30.2701 337.984 30.2701C367.494 30.2701 369.704 30.5401 399.644 30.5401C429.584 30.5401 430.964 28.83 461.294 28.83C491.624 28.83 493.404 5.41006 522.954 5.41006C552.504 5.41006 553.914 30.0401 584.604 30.0401C615.294 30.0401 615.964 4.84006 646.254 4.84006C676.544 4.84006 678.034 29.3701 707.914 29.3701C737.794 29.3701 739.944 9.02005 769.564 9.02005C799.184 9.02005 800.684 25.2701 831.214 25.2701C861.744 25.2701 862.704 12.1001 892.874 12.1001C923.044 12.1001 924.764 19.4401 954.524 19.4401C984.284 19.4401 986.544 3.72006 1016.17 3.72006C1045.8 3.72006 1047.06 19.7001 1077.83 19.7001C1108.6 19.7001 1109.52 11.4201 1139.48 11.4201C1169.44 11.4201 1170.75 21.1301 1201.13 21.1301C1231.51 21.1301 1232.6 2.07007 1262.79 2.07007C1292.98 2.07007 1294.42 23.6301 1324.44 23.6301C1354.46 23.6301 1355.66 5.39008 1386.1 5.39008C1416.54 5.39008 1417.46 21.9501 1447.75 21.9501C1478.04 21.9501 1479.58 8.09006 1509.4 8.09006L1472.41 140H-93.5863V1.59006Z" fill="#ADBCBC"/>
</svg>
