<svg width="1366" height="229" viewBox="0 0 1366 229" fill="none" xmlns="http://www.w3.org/2000/svg">
<path d="M-98.866 7.79001C-72.856 8.43001 -72.446 8.04999 -47.016 8.04999C-21.586 8.04999 -20.196 16.18 4.84403 16.18C29.884 16.18 32.184 15.63 56.694 15.63C81.204 15.63 83.734 13.93 108.554 13.93C133.374 13.93 135.074 15.06 160.404 15.06C185.734 15.06 186.404 11.81 212.264 11.81C238.124 11.81 238.224 10.09 264.114 10.09C290.004 10.09 290.614 5.97 315.964 5.97C341.314 5.97 343.034 7.76001 367.824 7.76001C392.614 7.76001 394.654 10.48 419.674 10.48C444.694 10.48 446.594 10.85 471.534 10.85C496.474 10.85 498.304 12.95 523.384 12.95C548.464 12.95 550.034 12.33 575.244 12.33C600.454 12.33 601.884 0.869995 627.094 0.869995C652.304 0.869995 653.844 16.66 678.944 16.66C704.044 16.66 705.754 7.72 730.804 7.72C755.854 7.72 756.944 15.96 782.654 15.96C808.364 15.96 808.744 7.51001 834.514 7.51001C860.284 7.51001 861.114 6.95999 886.364 6.95999C911.614 6.95999 913.504 3.01999 938.224 3.01999C962.944 3.01999 964.644 4.22 990.074 4.22C1015.5 4.22 1016.14 15.36 1041.92 15.36C1067.7 15.36 1067.89 15.6 1093.78 15.6C1119.67 15.6 1120.02 11.83 1145.63 11.83C1171.24 11.83 1172.84 12.7 1197.49 12.7C1222.14 12.7 1224.14 13.04 1249.34 13.04C1274.54 13.04 1275.78 12.38 1301.2 12.38C1326.62 12.38 1327.55 7.23999 1353.05 7.23999C1378.55 7.23999 1380.19 14.88 1404.9 14.88C1429.61 14.88 1431.05 1.5 1456.76 1.5C1482.47 1.5 1483.42 10.43 1508.61 10.43L1467.13 229H-98.866V7.79001Z" fill="#254346"/>
</svg>
