<svg width="1366" height="201" viewBox="0 0 1366 201" fill="none" xmlns="http://www.w3.org/2000/svg">
<path d="M-93.5863 1.07007C-65.0363 4.71007 -66.1263 17.1401 -38.8263 17.1401C-11.5263 17.1401 -11.4263 10.3401 15.9237 10.3401C43.2737 10.3401 43.4637 20.4801 70.6837 20.4801C97.9037 20.4801 99.0637 15.5001 125.434 15.5001C151.804 15.5001 153.534 19.58 180.194 19.58C206.854 19.58 208.234 14.8901 234.944 14.8901C261.654 14.8901 263.124 11.6801 289.704 11.6801C316.284 11.6801 317.804 6.51007 344.454 6.51007C371.104 6.51007 373.284 4.90005 399.214 4.90005C425.144 4.90005 427.494 3.87006 453.964 3.87006C480.434 3.87006 481.894 18.9401 508.724 18.9401C535.554 18.9401 536.624 7.95007 563.474 7.95007C590.324 7.95007 590.994 13.5401 618.234 13.5401C645.474 13.5401 647.054 11.8901 672.984 11.8901C698.914 11.8901 701.474 13.7301 727.744 13.7301C754.014 13.7301 755.804 16.4101 782.494 16.4101C809.184 16.4101 810.094 10.8101 837.254 10.8101C864.414 10.8101 865.244 20.2501 892.004 20.2501C918.764 20.2501 919.634 12.3701 946.764 12.3701C973.894 12.3701 974.994 7.35007 1001.51 7.35007C1028.03 7.35007 1029.69 22.2901 1056.27 22.2901C1082.85 22.2901 1084.9 0.930054 1111.03 0.930054C1137.16 0.930054 1139.56 14.4601 1165.78 14.4601C1192 14.4601 1193.52 11.2901 1220.54 11.2901C1247.56 11.2901 1248.35 14.9901 1275.29 14.9901C1302.23 14.9901 1302.78 14.0201 1330.05 14.0201C1357.32 14.0201 1358.65 11.3701 1384.8 11.3701C1410.95 11.3701 1413.44 13.5301 1439.56 13.5301C1465.68 13.5301 1467.6 17.58 1494.31 17.58L1472.41 201H-93.5863V1.07007Z" fill="#51696B"/>
</svg>
