<svg width="1366" height="157" viewBox="0 0 1366 157" fill="none" xmlns="http://www.w3.org/2000/svg">
<path d="M-91.134 11.21C-60.534 4.88002 -60.574 26.42 -31.364 26.42C-2.15404 26.42 -0.0340347 9.75003 28.406 9.75003C56.846 9.75003 58.776 19.87 88.176 19.87C117.576 19.87 119.296 9.66003 147.946 9.66003C176.596 9.66003 177.876 29.23 207.716 29.23C237.556 29.23 238.456 7.94003 267.496 7.94003C296.536 7.94003 297.826 31.35 327.266 31.35C356.706 31.35 358.066 4.63004 387.036 4.63004C416.006 4.63004 417.656 29.21 446.806 29.21C475.956 29.21 476.826 11.03 506.576 11.03C536.326 11.03 537.616 28.82 566.346 28.82C595.076 28.82 596.776 8.93002 626.116 8.93002C655.456 8.93002 656.196 27.97 685.886 27.97C715.576 27.97 716.876 6.66003 745.656 6.66003C774.436 6.66003 776.116 27.39 805.426 27.39C834.736 27.39 836.006 13.65 865.206 13.65C894.406 13.65 896.326 26.07 924.976 26.07C953.626 26.07 955.716 0.350037 984.746 0.350037C1013.78 0.350037 1015.03 25.2 1044.52 25.2C1074.01 25.2 1075.28 4.71002 1104.29 4.71002C1133.3 4.71002 1134.56 11.99 1164.06 11.99C1193.56 11.99 1194.52 11.39 1223.83 11.39C1253.14 11.39 1254.51 31.92 1283.6 31.92C1312.69 31.92 1314.81 10.91 1343.37 10.91C1371.93 10.91 1373.87 27.56 1403.14 27.56C1432.41 27.56 1433.97 1.97003 1462.92 1.97003C1491.87 1.97003 1493.7 17.65 1522.69 17.65L1474.87 157H-91.134V11.21Z" fill="#95A6A7"/>
</svg>
