<svg width="1366" height="114" viewBox="0 0 1366 114" fill="none" xmlns="http://www.w3.org/2000/svg">
<path d="M-98.866 9.15002C-64.656 14.94 -64.986 30.48 -33.066 30.48C-1.14597 30.48 0.634041 12.6 32.734 12.6C64.834 12.6 66.854 38.38 98.524 38.38C130.194 38.38 131.924 0.77002 164.324 0.77002C196.724 0.77002 198.084 28.69 230.124 28.69C262.164 28.69 263.124 4.90002 295.924 4.90002C328.724 4.90002 328.914 2.72003 361.724 2.72003C394.534 2.72003 395.044 10.84 427.524 10.84C460.004 10.84 461.154 30.32 493.314 30.32C525.474 30.32 526.454 13.33 559.114 13.33C591.774 13.33 592.054 28.27 624.914 28.27C657.774 28.27 658.204 3.58002 690.714 3.58002C723.224 3.58002 724.504 29.41 756.514 29.41C788.524 29.41 790.124 10.55 822.314 10.55C854.504 10.55 855.434 31.21 888.104 31.21C920.774 31.21 921.314 2.71002 953.904 2.71002C986.494 2.71002 987.924 33.22 1019.7 33.22C1051.48 33.22 1052.99 12.39 1085.5 12.39C1118.01 12.39 1118.85 40.99 1151.3 40.99C1183.75 40.99 1184.37 5.22003 1217.1 5.22003C1249.83 5.22003 1250.9 28.65 1282.89 28.65C1314.88 28.65 1316.32 4.36002 1348.69 4.36002C1381.06 4.36002 1383.04 40.77 1414.49 40.77C1445.94 40.77 1448.49 7.00003 1480.29 7.00003L1467.13 114H-98.866V9.15002Z" fill="#C4D2D2"/>
</svg>
