<svg width="1366" height="128" viewBox="0 0 1366 128" fill="none" xmlns="http://www.w3.org/2000/svg">
<path d="M-96.4137 0.290039C-63.6537 11.35 -64.2437 10.52 -32.7537 10.52C-1.26369 10.52 -0.113693 11.22 30.9063 11.22C61.9263 11.22 63.3563 37.73 94.5663 37.73C125.776 37.73 127.016 13.59 158.216 13.59C189.416 13.59 191.336 27.63 221.876 27.63C252.416 27.63 254.546 7.70004 285.536 7.70004C316.526 7.70004 317.886 11.98 349.196 11.98C380.506 11.98 381.126 7.38004 412.856 7.38004C444.586 7.38004 445.986 29.18 476.516 29.18C507.046 29.18 508.366 9.60004 540.176 9.60004C571.986 9.60004 572.536 26.83 603.826 26.83C635.116 26.83 636.956 4.62003 667.486 4.62003C698.016 4.62003 699.956 23.67 731.146 23.67C762.336 23.67 764.076 3.85004 794.806 3.85004C825.536 3.85004 827.816 23.59 858.466 23.59C889.116 23.59 891.606 1.18002 922.126 1.18002C952.646 1.18002 954.256 33.65 985.786 33.65C1017.32 33.65 1019.04 12.68 1049.44 12.68C1079.84 12.68 1082 33.53 1113.1 33.53C1144.2 33.53 1145.57 3.65002 1176.76 3.65002C1207.95 3.65002 1208.73 27.21 1240.42 27.21C1272.11 27.21 1273.51 36.98 1304.08 36.98C1334.65 36.98 1336.31 26.32 1367.74 26.32C1399.17 26.32 1399.59 28.62 1431.39 28.62C1463.19 28.62 1463.28 28.21 1495.05 28.21L1469.59 128H-96.4137V0.290039Z" fill="#AFC5C5"/>
</svg>
