<svg width="1366" height="243" viewBox="0 0 1366 243" fill="none" xmlns="http://www.w3.org/2000/svg">
<path d="M-100 6.43002C-73.76 10.26 -73.99 7.14005 -49.48 7.14005C-24.97 7.14005 -23.76 10.83 1.03 10.83C25.82 10.83 26.57 6.86002 51.55 6.86002C76.53 6.86002 77.62 2.24002 102.06 2.24002C126.5 2.24002 128.09 11.79 152.58 11.79C177.07 11.79 178.49 10.35 203.1 10.35C227.71 10.35 229.26 1.37003 253.61 1.37003C277.96 1.37003 279.61 9.40002 304.13 9.40002C328.65 9.40002 329.72 0.76004 354.65 0.76004C379.58 0.76004 380.95 8.55002 405.16 8.55002C429.37 8.55002 430.65 11.27 455.68 11.27C480.71 11.27 481.37 6.58002 506.19 6.58002C531.01 6.58002 531.81 5.55002 556.71 5.55002C581.61 5.55002 583.33 9.78003 607.23 9.78003C631.13 9.78003 632.91 0.680023 657.74 0.680023C682.57 0.680023 683.31 10.33 708.26 10.33C733.21 10.33 733.55 0.980042 758.77 0.980042C783.99 0.980042 784.55 0.450043 809.29 0.450043C834.03 0.450043 835.72 2.40002 859.81 2.40002C883.9 2.40002 885.2 1.94003 910.32 1.94003C935.44 1.94003 936.66 10.43 960.84 10.43C985.02 10.43 986.39 8.37003 1011.35 8.37003C1036.31 8.37003 1036.85 12.13 1061.87 12.13C1086.89 12.13 1087.5 12.36 1112.39 12.36C1137.28 12.36 1138.91 5.02002 1162.9 5.02002C1186.89 5.02002 1188.68 9.66003 1213.42 9.66003C1238.16 9.66003 1239.2 1.01004 1263.94 1.01004C1288.68 1.01004 1289.42 0.160034 1314.45 0.160034C1339.48 0.160034 1340.13 8.96002 1364.97 8.96002C1389.81 8.96002 1390.6 11.95 1415.48 11.95C1440.36 11.95 1441.1 5.64005 1466 5.64005C1490.9 5.64005 1492.04 5.60004 1516.52 5.60004L1466 243H-100V6.43002Z" fill="#0F3135"/>
</svg>
